<svg width="217" height="217" viewBox="0 0 217 217" fill="none" xmlns="http://www.w3.org/2000/svg">
<path d="M0 108.068C0 167.752 48.3836 216.135 108.068 216.135C167.752 216.135 216.135 167.752 216.135 108.068C216.135 48.3836 167.752 0 108.068 0C48.3836 0 0 48.3836 0 108.068Z" fill="#1E1E1E"/>
<path d="M126.471 78.1963C120.553 78.1963 114.475 80.4857 108.407 84.9985L106.672 86.2914L102.992 84.4382C102.007 83.9419 96.7561 81.4683 90.11 81.4683C81.9208 81.4683 74.8144 85.1907 70.0974 91.9509C66.7213 96.7899 64.9062 102.253 64.8481 107.761V156.972C64.8481 157.446 65.2324 157.832 65.7087 157.832H150.442C150.916 157.832 151.302 157.448 151.302 156.972V105.595C151.302 100.084 149.763 94.7787 146.852 90.2518C141.852 82.479 134.614 78.1983 126.469 78.1963H126.471ZM98.8675 95.1749C93.7723 100.268 88.0747 112.236 88.0747 120.627C88.0747 127.511 91.793 140.533 105.87 140.533C119.006 140.533 124.888 129.923 124.888 119.406C124.888 108.89 114.169 94.7567 114.061 94.6146L113.316 93.644L114.297 92.9155C118.624 89.6955 122.72 88.0625 126.473 88.0625C131.212 88.0625 135.392 90.6661 138.558 95.5892C140.444 98.521 141.44 101.981 141.44 105.597V147.97H74.7964V107.877C74.8344 104.329 76.0391 100.676 78.1885 97.5944C81.0483 93.4979 85.1709 91.3305 90.112 91.3305C94.6988 91.3305 98.4031 93.1677 98.5572 93.2477L100.044 93.9962L98.8654 95.1749H98.8675ZM105.87 130.669C99.6079 130.669 97.9369 124.357 97.9369 120.627C97.9369 116.008 101.379 108.741 104.247 104.339C104.971 103.226 105.8 102.187 106.72 101.233L106.818 101.349C107.437 102.077 108.005 102.848 108.517 103.654C111.179 107.837 115.022 115.107 115.022 119.404C115.022 126.563 111.685 130.669 105.868 130.669H105.87Z" fill="#F6DDE1"/>
<path d="M88.7657 77.4249C92.9423 77.4249 96.3404 74.0267 96.3404 69.8501C96.3404 65.6735 92.9423 62.2754 88.7657 62.2754C84.5891 62.2754 81.1909 65.6735 81.1909 69.8501C81.1909 74.0267 84.5891 77.4249 88.7657 77.4249Z" fill="#F6DDE1"/>
<path d="M128.085 73.4854C132.262 73.4854 135.66 70.0873 135.66 65.9107C135.66 61.7341 132.262 58.3359 128.085 58.3359C123.908 58.3359 120.51 61.7341 120.51 65.9107C120.51 70.0873 123.908 73.4854 128.085 73.4854Z" fill="#F6DDE1"/>
</svg>
