<svg width="128" height="177" viewBox="0 0 128 177" fill="none" xmlns="http://www.w3.org/2000/svg">
<path d="M2.78998 23.175H97.6047L102.953 194.452H0.75L2.78998 23.175Z" fill="white" stroke="#1E1E1E" stroke-width="1.5" stroke-linecap="round" stroke-linejoin="round"/>
<path d="M91.9946 32.3551H35.6699V61.1551H91.9946V32.3551Z" fill="#8D8DFF"/>
<path d="M97.6055 23.175L117.143 0.750031L126.998 183.405L102.953 194.453L97.6055 23.175Z" fill="white" stroke="#1E1E1E" stroke-width="1.5" stroke-linecap="round" stroke-linejoin="round"/>
<path d="M31.1614 0.750031H117.142L97.6038 23.175H2.78906L31.1614 0.750031Z" fill="white" stroke="#1E1E1E" stroke-width="1.5" stroke-linecap="round" stroke-linejoin="round"/>
<path d="M49.3799 44.75V39.5H51.3674C51.9124 39.5 52.3274 39.6225 52.6124 39.8675C52.9024 40.1075 53.0474 40.425 53.0474 40.82C53.0474 41.11 52.9774 41.3475 52.8374 41.5325C52.6974 41.7125 52.5224 41.8475 52.3124 41.9375C52.4874 42.0025 52.6474 42.1 52.7924 42.23C52.9424 42.36 53.0624 42.515 53.1524 42.695C53.2424 42.87 53.2874 43.0625 53.2874 43.2725C53.2874 43.5475 53.2199 43.7975 53.0849 44.0225C52.9499 44.2475 52.7549 44.425 52.4999 44.555C52.2449 44.685 51.9324 44.75 51.5624 44.75H49.3799ZM50.3399 43.9325H51.4724C51.7574 43.9325 51.9674 43.8675 52.1024 43.7375C52.2424 43.6075 52.3124 43.42 52.3124 43.175C52.3124 42.93 52.2399 42.7425 52.0949 42.6125C51.9499 42.4825 51.7374 42.4175 51.4574 42.4175H50.3399V43.9325ZM50.3399 41.6H51.2849C51.5549 41.6 51.7524 41.5475 51.8774 41.4425C52.0024 41.3325 52.0649 41.17 52.0649 40.955C52.0649 40.75 52.0024 40.5925 51.8774 40.4825C51.7574 40.3725 51.5549 40.3175 51.2699 40.3175H50.3399V41.6ZM55.652 44.84C55.277 44.84 54.942 44.76 54.647 44.6C54.357 44.435 54.1295 44.205 53.9645 43.91C53.7995 43.615 53.717 43.275 53.717 42.89C53.717 42.485 53.8045 42.1375 53.9795 41.8475C54.1595 41.5525 54.397 41.3275 54.692 41.1725C54.992 41.0175 55.322 40.94 55.682 40.94C56.057 40.94 56.392 41.0225 56.687 41.1875C56.982 41.3475 57.2145 41.5725 57.3845 41.8625C57.5595 42.1525 57.647 42.495 57.647 42.89C57.647 43.265 57.562 43.6 57.392 43.895C57.222 44.19 56.987 44.4225 56.687 44.5925C56.392 44.7575 56.047 44.84 55.652 44.84ZM55.667 44.0075C55.867 44.0075 56.0395 43.9575 56.1845 43.8575C56.3345 43.7525 56.452 43.615 56.537 43.445C56.622 43.27 56.6645 43.08 56.6645 42.875C56.6645 42.64 56.617 42.44 56.522 42.275C56.432 42.11 56.312 41.985 56.162 41.9C56.012 41.815 55.847 41.7725 55.667 41.7725C55.472 41.7725 55.2995 41.82 55.1495 41.915C55.0045 42.01 54.8895 42.1425 54.8045 42.3125C54.7245 42.4775 54.6845 42.67 54.6845 42.89C54.6845 43.11 54.727 43.305 54.812 43.475C54.902 43.645 55.022 43.7775 55.172 43.8725C55.322 43.9625 55.487 44.0075 55.667 44.0075ZM60.0172 44.84C59.6422 44.84 59.3072 44.76 59.0122 44.6C58.7222 44.435 58.4947 44.205 58.3297 43.91C58.1647 43.615 58.0822 43.275 58.0822 42.89C58.0822 42.485 58.1697 42.1375 58.3447 41.8475C58.5247 41.5525 58.7622 41.3275 59.0572 41.1725C59.3572 41.0175 59.6872 40.94 60.0472 40.94C60.4222 40.94 60.7572 41.0225 61.0522 41.1875C61.3472 41.3475 61.5797 41.5725 61.7497 41.8625C61.9247 42.1525 62.0122 42.495 62.0122 42.89C62.0122 43.265 61.9272 43.6 61.7572 43.895C61.5872 44.19 61.3522 44.4225 61.0522 44.5925C60.7572 44.7575 60.4122 44.84 60.0172 44.84ZM60.0322 44.0075C60.2322 44.0075 60.4047 43.9575 60.5497 43.8575C60.6997 43.7525 60.8172 43.615 60.9022 43.445C60.9872 43.27 61.0297 43.08 61.0297 42.875C61.0297 42.64 60.9822 42.44 60.8872 42.275C60.7972 42.11 60.6772 41.985 60.5272 41.9C60.3772 41.815 60.2122 41.7725 60.0322 41.7725C59.8372 41.7725 59.6647 41.82 59.5147 41.915C59.3697 42.01 59.2547 42.1425 59.1697 42.3125C59.0897 42.4775 59.0497 42.67 59.0497 42.89C59.0497 43.11 59.0922 43.305 59.1772 43.475C59.2672 43.645 59.3872 43.7775 59.5372 43.8725C59.6872 43.9625 59.8522 44.0075 60.0322 44.0075ZM62.5675 44.75V39.5H63.5275V42.605L64.765 41.03H66.0025L64.3675 42.8975L66.025 44.75H64.7875L63.5275 43.1675V44.75H62.5675ZM67.8327 44.84C67.5527 44.84 67.2902 44.79 67.0452 44.69C66.8002 44.585 66.5977 44.4375 66.4377 44.2475C66.2827 44.0575 66.1977 43.835 66.1827 43.58H67.1427C67.1677 43.74 67.2452 43.865 67.3752 43.955C67.5102 44.045 67.6602 44.09 67.8252 44.09C67.9652 44.09 68.0952 44.06 68.2152 44C68.3402 43.935 68.4027 43.835 68.4027 43.7C68.4027 43.595 68.3577 43.5125 68.2677 43.4525C68.1777 43.3925 68.0727 43.345 67.9527 43.31C67.8327 43.275 67.7227 43.245 67.6227 43.22C67.3727 43.16 67.1452 43.09 66.9402 43.01C66.7352 42.925 66.5727 42.81 66.4527 42.665C66.3327 42.515 66.2727 42.3175 66.2727 42.0725C66.2727 41.8325 66.3402 41.6275 66.4752 41.4575C66.6152 41.2875 66.7977 41.16 67.0227 41.075C67.2527 40.985 67.5002 40.94 67.7652 40.94C68.1802 40.94 68.5302 41.045 68.8152 41.255C69.1002 41.465 69.2552 41.775 69.2802 42.185H68.3727C68.3577 42.025 68.2902 41.905 68.1702 41.825C68.0552 41.74 67.9102 41.6975 67.7352 41.6975C67.5952 41.6975 67.4702 41.7225 67.3602 41.7725C67.2502 41.8225 67.1952 41.9175 67.1952 42.0575C67.1952 42.1575 67.2402 42.24 67.3302 42.305C67.4202 42.365 67.5277 42.415 67.6527 42.455C67.7777 42.49 67.8877 42.52 67.9827 42.545C68.2427 42.61 68.4702 42.685 68.6652 42.77C68.8652 42.855 69.0227 42.97 69.1377 43.115C69.2527 43.26 69.3127 43.455 69.3177 43.7C69.3177 43.945 69.2477 44.1525 69.1077 44.3225C68.9727 44.4925 68.7927 44.6225 68.5677 44.7125C68.3427 44.7975 68.0977 44.84 67.8327 44.84ZM73.3384 44.84C73.1034 44.84 72.8784 44.805 72.6634 44.735C72.4534 44.66 72.2659 44.5525 72.1009 44.4125C71.9409 44.2725 71.8134 44.105 71.7184 43.91C71.6234 43.71 71.5759 43.485 71.5759 43.235C71.5759 43.06 71.6034 42.8925 71.6584 42.7325C71.7134 42.5725 71.7909 42.42 71.8909 42.275C71.9959 42.13 72.1234 42 72.2734 41.885L72.3409 41.8325L72.2734 41.735C72.1734 41.59 72.0984 41.4475 72.0484 41.3075C72.0034 41.1625 71.9809 41.015 71.9809 40.865C71.9809 40.575 72.0484 40.3225 72.1834 40.1075C72.3234 39.8875 72.5134 39.7175 72.7534 39.5975C72.9984 39.4725 73.2784 39.41 73.5934 39.41C73.9084 39.41 74.1859 39.4725 74.4259 39.5975C74.6709 39.7175 74.8609 39.89 74.9959 40.115C75.1359 40.34 75.2059 40.61 75.2059 40.925H74.2534C74.2534 40.82 74.2309 40.7175 74.1859 40.6175C74.1409 40.5175 74.0684 40.435 73.9684 40.37C73.8684 40.305 73.7384 40.2725 73.5784 40.2725C73.4334 40.2725 73.3134 40.3025 73.2184 40.3625C73.1234 40.4225 73.0534 40.4975 73.0084 40.5875C72.9634 40.6775 72.9409 40.77 72.9409 40.865C72.9409 41.05 73.0084 41.2275 73.1434 41.3975C73.2834 41.5675 73.4734 41.7725 73.7134 42.0125L74.6209 42.92L75.3709 41.7125H76.3909L75.2434 43.5425L76.4509 44.75H75.2434L74.7334 44.24L74.6584 44.315C74.4834 44.49 74.2809 44.6225 74.0509 44.7125C73.8259 44.7975 73.5884 44.84 73.3384 44.84ZM73.3984 43.9625C73.5284 43.9625 73.6509 43.94 73.7659 43.895C73.8809 43.845 74.0034 43.76 74.1334 43.64L72.9259 42.44C72.7859 42.55 72.6859 42.665 72.6259 42.785C72.5659 42.905 72.5359 43.03 72.5359 43.16C72.5359 43.31 72.5759 43.445 72.6559 43.565C72.7359 43.685 72.8409 43.7825 72.9709 43.8575C73.1059 43.9275 73.2484 43.9625 73.3984 43.9625ZM47.6897 54.84C47.3247 54.84 46.9922 54.7775 46.6922 54.6525C46.3972 54.5275 46.1622 54.3425 45.9872 54.0975C45.8122 53.8475 45.7197 53.5375 45.7097 53.1675H46.7222C46.7322 53.4125 46.8197 53.6175 46.9847 53.7825C47.1547 53.9475 47.3872 54.03 47.6822 54.03C47.9372 54.03 48.1397 53.97 48.2897 53.85C48.4397 53.73 48.5147 53.5675 48.5147 53.3625C48.5147 53.2575 48.4972 53.165 48.4622 53.085C48.4322 53.005 48.3722 52.93 48.2822 52.86C48.1922 52.79 48.0647 52.7225 47.8997 52.6575C47.7397 52.5875 47.5272 52.51 47.2622 52.425C46.9172 52.31 46.6397 52.1775 46.4297 52.0275C46.2197 51.8775 46.0672 51.71 45.9722 51.525C45.8822 51.335 45.8372 51.13 45.8372 50.91C45.8372 50.58 45.9147 50.305 46.0697 50.085C46.2297 49.86 46.4422 49.6925 46.7072 49.5825C46.9772 49.4675 47.2747 49.41 47.5997 49.41C47.9297 49.41 48.2272 49.4675 48.4922 49.5825C48.7622 49.6975 48.9797 49.8675 49.1447 50.0925C49.3097 50.3175 49.3947 50.595 49.3997 50.925H48.3722C48.3672 50.735 48.2922 50.57 48.1472 50.43C48.0072 50.29 47.8122 50.22 47.5622 50.22C47.3622 50.22 47.1922 50.2725 47.0522 50.3775C46.9122 50.4825 46.8422 50.6375 46.8422 50.8425C46.8422 50.9925 46.8972 51.12 47.0072 51.225C47.1222 51.33 47.2747 51.4225 47.4647 51.5025C47.6597 51.5775 47.8747 51.6575 48.1097 51.7425C48.2397 51.7875 48.3847 51.845 48.5447 51.915C48.7097 51.985 48.8672 52.08 49.0172 52.2C49.1672 52.315 49.2897 52.4625 49.3847 52.6425C49.4847 52.8175 49.5347 53.035 49.5347 53.295C49.5347 53.615 49.4522 53.89 49.2872 54.12C49.1272 54.35 48.9072 54.5275 48.6272 54.6525C48.3522 54.7775 48.0397 54.84 47.6897 54.84ZM51.6337 54.75C51.2337 54.75 50.9312 54.6525 50.7262 54.4575C50.5262 54.2625 50.4262 53.97 50.4262 53.58V51.8325H49.9462V51.03H50.4262V50.1225H51.3862V51.03H52.2337V51.8325H51.3862V53.5875C51.3862 53.7275 51.4237 53.8225 51.4987 53.8725C51.5737 53.9225 51.6712 53.9475 51.7912 53.9475H52.2337V54.75H51.6337ZM53.9406 54.84C53.7206 54.84 53.5156 54.795 53.3256 54.705C53.1356 54.615 52.9806 54.4875 52.8606 54.3225C52.7456 54.1525 52.6881 53.9525 52.6881 53.7225C52.6881 53.4475 52.7556 53.2225 52.8906 53.0475C53.0256 52.8725 53.2106 52.7425 53.4456 52.6575C53.6856 52.5725 53.9531 52.53 54.2481 52.53H55.1331C55.1331 52.36 55.1056 52.2175 55.0506 52.1025C55.0006 51.9875 54.9231 51.9 54.8181 51.84C54.7181 51.775 54.5931 51.7425 54.4431 51.7425C54.2681 51.7425 54.1106 51.7825 53.9706 51.8625C53.8356 51.9375 53.7531 52.065 53.7231 52.245H52.7631C52.7881 51.975 52.8806 51.7425 53.0406 51.5475C53.2006 51.3525 53.4056 51.2025 53.6556 51.0975C53.9056 50.9925 54.1731 50.94 54.4581 50.94C54.8081 50.94 55.1031 51.005 55.3431 51.135C55.5881 51.265 55.7756 51.45 55.9056 51.69C56.0356 51.925 56.1006 52.205 56.1006 52.53V53.6625C56.1106 53.7725 56.1506 53.8475 56.2206 53.8875C56.2906 53.9275 56.3831 53.9475 56.4981 53.9475V54.75C56.2631 54.75 56.0656 54.7275 55.9056 54.6825C55.7506 54.6375 55.6231 54.5725 55.5231 54.4875C55.4231 54.3975 55.3381 54.285 55.2681 54.15C55.1531 54.345 54.9731 54.51 54.7281 54.645C54.4881 54.775 54.2256 54.84 53.9406 54.84ZM54.2181 54.0675C54.3831 54.0675 54.5331 54.03 54.6681 53.955C54.8081 53.88 54.9206 53.775 55.0056 53.64C55.0906 53.505 55.1331 53.35 55.1331 53.175V53.145H54.3081C54.1981 53.145 54.0931 53.1625 53.9931 53.1975C53.8931 53.2275 53.8131 53.2775 53.7531 53.3475C53.6931 53.4125 53.6631 53.5025 53.6631 53.6175C53.6631 53.7725 53.7156 53.8875 53.8206 53.9625C53.9306 54.0325 54.0631 54.0675 54.2181 54.0675ZM58.2402 54.75C57.8402 54.75 57.5377 54.6525 57.3327 54.4575C57.1327 54.2625 57.0327 53.97 57.0327 53.58V51.8325H56.5527V51.03H57.0327V50.1225H57.9927V51.03H58.8402V51.8325H57.9927V53.5875C57.9927 53.7275 58.0302 53.8225 58.1052 53.8725C58.1802 53.9225 58.2777 53.9475 58.3977 53.9475H58.8402V54.75H58.2402ZM59.9246 50.55C59.7546 50.55 59.6071 50.49 59.4821 50.37C59.3621 50.245 59.3021 50.0975 59.3021 49.9275C59.3021 49.7525 59.3621 49.605 59.4821 49.485C59.6071 49.365 59.7546 49.305 59.9246 49.305C60.0996 49.305 60.2471 49.365 60.3671 49.485C60.4871 49.605 60.5471 49.7525 60.5471 49.9275C60.5471 50.0975 60.4871 50.245 60.3671 50.37C60.2471 50.49 60.0996 50.55 59.9246 50.55ZM59.4446 54.75V51.03H60.4046V54.75H59.4446ZM62.9213 54.84C62.5463 54.84 62.2113 54.76 61.9163 54.6C61.6263 54.435 61.3988 54.205 61.2338 53.91C61.0688 53.615 60.9863 53.275 60.9863 52.89C60.9863 52.485 61.0738 52.1375 61.2488 51.8475C61.4288 51.5525 61.6663 51.3275 61.9613 51.1725C62.2613 51.0175 62.5913 50.94 62.9513 50.94C63.3263 50.94 63.6613 51.0225 63.9563 51.1875C64.2513 51.3475 64.4838 51.5725 64.6538 51.8625C64.8288 52.1525 64.9163 52.495 64.9163 52.89C64.9163 53.265 64.8313 53.6 64.6613 53.895C64.4913 54.19 64.2563 54.4225 63.9563 54.5925C63.6613 54.7575 63.3163 54.84 62.9213 54.84ZM62.9363 54.0075C63.1363 54.0075 63.3088 53.9575 63.4538 53.8575C63.6038 53.7525 63.7213 53.615 63.8063 53.445C63.8913 53.27 63.9338 53.08 63.9338 52.875C63.9338 52.64 63.8863 52.44 63.7913 52.275C63.7013 52.11 63.5813 51.985 63.4313 51.9C63.2813 51.815 63.1163 51.7725 62.9363 51.7725C62.7413 51.7725 62.5688 51.82 62.4188 51.915C62.2738 52.01 62.1588 52.1425 62.0738 52.3125C61.9938 52.4775 61.9538 52.67 61.9538 52.89C61.9538 53.11 61.9963 53.305 62.0813 53.475C62.1713 53.645 62.2913 53.7775 62.4413 53.8725C62.5913 53.9625 62.7563 54.0075 62.9363 54.0075ZM65.4715 54.75V51.03H66.424V51.465C66.554 51.29 66.7265 51.16 66.9415 51.075C67.1615 50.985 67.3815 50.94 67.6015 50.94C68.0315 50.94 68.384 51.08 68.659 51.36C68.934 51.635 69.0715 52.035 69.0715 52.56V54.75H68.119V52.6875C68.119 52.4075 68.0465 52.1825 67.9015 52.0125C67.7615 51.8375 67.554 51.75 67.279 51.75C67.004 51.75 66.7915 51.8375 66.6415 52.0125C66.4965 52.1825 66.424 52.4075 66.424 52.6875V54.75H65.4715ZM70.823 54.84C70.603 54.84 70.398 54.795 70.208 54.705C70.018 54.615 69.863 54.4875 69.743 54.3225C69.628 54.1525 69.5705 53.9525 69.5705 53.7225C69.5705 53.4475 69.638 53.2225 69.773 53.0475C69.908 52.8725 70.093 52.7425 70.328 52.6575C70.568 52.5725 70.8355 52.53 71.1305 52.53H72.0155C72.0155 52.36 71.988 52.2175 71.933 52.1025C71.883 51.9875 71.8055 51.9 71.7005 51.84C71.6005 51.775 71.4755 51.7425 71.3255 51.7425C71.1505 51.7425 70.993 51.7825 70.853 51.8625C70.718 51.9375 70.6355 52.065 70.6055 52.245H69.6455C69.6705 51.975 69.763 51.7425 69.923 51.5475C70.083 51.3525 70.288 51.2025 70.538 51.0975C70.788 50.9925 71.0555 50.94 71.3405 50.94C71.6905 50.94 71.9855 51.005 72.2255 51.135C72.4705 51.265 72.658 51.45 72.788 51.69C72.918 51.925 72.983 52.205 72.983 52.53V53.6625C72.993 53.7725 73.033 53.8475 73.103 53.8875C73.173 53.9275 73.2655 53.9475 73.3805 53.9475V54.75C73.1455 54.75 72.948 54.7275 72.788 54.6825C72.633 54.6375 72.5055 54.5725 72.4055 54.4875C72.3055 54.3975 72.2205 54.285 72.1505 54.15C72.0355 54.345 71.8555 54.51 71.6105 54.645C71.3705 54.775 71.108 54.84 70.823 54.84ZM71.1005 54.0675C71.2655 54.0675 71.4155 54.03 71.5505 53.955C71.6905 53.88 71.803 53.775 71.888 53.64C71.973 53.505 72.0155 53.35 72.0155 53.175V53.145H71.1905C71.0805 53.145 70.9755 53.1625 70.8755 53.1975C70.7755 53.2275 70.6955 53.2775 70.6355 53.3475C70.5755 53.4125 70.5455 53.5025 70.5455 53.6175C70.5455 53.7725 70.598 53.8875 70.703 53.9625C70.813 54.0325 70.9455 54.0675 71.1005 54.0675ZM73.8431 54.75V51.03H74.7956V51.585C74.9256 51.375 75.0906 51.215 75.2906 51.105C75.4906 50.995 75.7131 50.94 75.9581 50.94V51.945H75.7031C75.3981 51.945 75.1706 52.0175 75.0206 52.1625C74.8706 52.3075 74.7956 52.55 74.7956 52.89V54.75H73.8431ZM76.7516 56.4L77.5691 54.5775L76.0616 51.03H77.1341L78.0941 53.565L79.0766 51.03H80.0891L77.7641 56.4H76.7516Z" fill="white"/>
</svg>
