<svg width="141" height="129" viewBox="0 0 141 129" fill="none" xmlns="http://www.w3.org/2000/svg">
<path d="M111.608 33.6977H0.75V127.89H116.258L111.608 33.6977Z" fill="white" stroke="#1E1E1E" stroke-width="1.5" stroke-linecap="round" stroke-linejoin="round"/>
<path d="M3.85608 63.9302H21.6836V55.0127H3.85608V63.9302Z" fill="#64BDFF"/>
<path d="M3.85602 80.7975L110.836 80.7975V69.7501L3.85602 69.7501V80.7975Z" fill="#64BDFF"/>
<path d="M127.89 0.750061L111.607 33.6976L116.257 127.89L139.515 103.86L127.89 0.750061Z" fill="white" stroke="#1E1E1E" stroke-width="1.5" stroke-linecap="round" stroke-linejoin="round"/>
<path d="M0.75 33.6976L40.2827 0.750061H127.89L111.608 33.6976H0.75Z" fill="white" stroke="#1E1E1E" stroke-width="1.5" stroke-linecap="round" stroke-linejoin="round"/>
<path d="M7.5533 77.8401C7.0133 77.8401 6.5533 77.7226 6.1733 77.4876C5.7933 77.2526 5.5033 76.9326 5.3033 76.5276C5.1033 76.1176 5.0033 75.6526 5.0033 75.1326C5.0033 74.6126 5.1008 74.1476 5.2958 73.7376C5.4908 73.3276 5.7783 73.0051 6.1583 72.7701C6.5383 72.5301 7.0033 72.4101 7.5533 72.4101C8.1833 72.4101 8.6983 72.5676 9.0983 72.8826C9.5033 73.1926 9.7558 73.6301 9.8558 74.1951H8.7983C8.7333 73.9101 8.5933 73.6876 8.3783 73.5276C8.1683 73.3626 7.8883 73.2801 7.5383 73.2801C7.2183 73.2801 6.9408 73.3551 6.7058 73.5051C6.4758 73.6551 6.2983 73.8676 6.1733 74.1426C6.0483 74.4176 5.9858 74.7476 5.9858 75.1326C5.9858 75.5126 6.0483 75.8426 6.1733 76.1226C6.2983 76.3976 6.4758 76.6101 6.7058 76.7601C6.9408 76.9051 7.2183 76.9776 7.5383 76.9776C7.8883 76.9776 8.1683 76.9026 8.3783 76.7526C8.5933 76.5976 8.7333 76.3851 8.7983 76.1151H9.8558C9.7558 76.6551 9.5033 77.0776 9.0983 77.3826C8.6983 77.6876 8.1833 77.8401 7.5533 77.8401ZM10.4972 77.7501V74.0301H11.4497V74.5851C11.5797 74.3751 11.7447 74.2151 11.9447 74.1051C12.1447 73.9951 12.3672 73.9401 12.6122 73.9401V74.9451H12.3572C12.0522 74.9451 11.8247 75.0176 11.6747 75.1626C11.5247 75.3076 11.4497 75.5501 11.4497 75.8901V77.7501H10.4972ZM14.8024 77.8401C14.4274 77.8401 14.0924 77.7601 13.7974 77.6001C13.5074 77.4351 13.2799 77.2051 13.1149 76.9101C12.9499 76.6151 12.8674 76.2751 12.8674 75.8901C12.8674 75.4851 12.9549 75.1376 13.1299 74.8476C13.3099 74.5526 13.5474 74.3276 13.8424 74.1726C14.1424 74.0176 14.4724 73.9401 14.8324 73.9401C15.2074 73.9401 15.5424 74.0226 15.8374 74.1876C16.1324 74.3476 16.3649 74.5726 16.5349 74.8626C16.7099 75.1526 16.7974 75.4951 16.7974 75.8901C16.7974 76.2651 16.7124 76.6001 16.5424 76.8951C16.3724 77.1901 16.1374 77.4226 15.8374 77.5926C15.5424 77.7576 15.1974 77.8401 14.8024 77.8401ZM14.8174 77.0076C15.0174 77.0076 15.1899 76.9576 15.3349 76.8576C15.4849 76.7526 15.6024 76.6151 15.6874 76.4451C15.7724 76.2701 15.8149 76.0801 15.8149 75.8751C15.8149 75.6401 15.7674 75.4401 15.6724 75.2751C15.5824 75.1101 15.4624 74.9851 15.3124 74.9001C15.1624 74.8151 14.9974 74.7726 14.8174 74.7726C14.6224 74.7726 14.4499 74.8201 14.2999 74.9151C14.1549 75.0101 14.0399 75.1426 13.9549 75.3126C13.8749 75.4776 13.8349 75.6701 13.8349 75.8901C13.8349 76.1101 13.8774 76.3051 13.9624 76.4751C14.0524 76.6451 14.1724 76.7776 14.3224 76.8726C14.4724 76.9626 14.6374 77.0076 14.8174 77.0076ZM19.1676 77.8401C18.7926 77.8401 18.4576 77.7601 18.1626 77.6001C17.8726 77.4351 17.6451 77.2051 17.4801 76.9101C17.3151 76.6151 17.2326 76.2751 17.2326 75.8901C17.2326 75.4851 17.3201 75.1376 17.4951 74.8476C17.6751 74.5526 17.9126 74.3276 18.2076 74.1726C18.5076 74.0176 18.8376 73.9401 19.1976 73.9401C19.5726 73.9401 19.9076 74.0226 20.2026 74.1876C20.4976 74.3476 20.7301 74.5726 20.9001 74.8626C21.0751 75.1526 21.1626 75.4951 21.1626 75.8901C21.1626 76.2651 21.0776 76.6001 20.9076 76.8951C20.7376 77.1901 20.5026 77.4226 20.2026 77.5926C19.9076 77.7576 19.5626 77.8401 19.1676 77.8401ZM19.1826 77.0076C19.3826 77.0076 19.5551 76.9576 19.7001 76.8576C19.8501 76.7526 19.9676 76.6151 20.0526 76.4451C20.1376 76.2701 20.1801 76.0801 20.1801 75.8751C20.1801 75.6401 20.1326 75.4401 20.0376 75.2751C19.9476 75.1101 19.8276 74.9851 19.6776 74.9001C19.5276 74.8151 19.3626 74.7726 19.1826 74.7726C18.9876 74.7726 18.8151 74.8201 18.6651 74.9151C18.5201 75.0101 18.4051 75.1426 18.3201 75.3126C18.2401 75.4776 18.2001 75.6701 18.2001 75.8901C18.2001 76.1101 18.2426 76.3051 18.3276 76.4751C18.4176 76.6451 18.5376 76.7776 18.6876 76.8726C18.8376 76.9626 19.0026 77.0076 19.1826 77.0076ZM21.7179 77.7501V72.5001H22.6779V75.6051L23.9154 74.0301H25.1529L23.5179 75.8976L25.1754 77.7501H23.9379L22.6779 76.1676V77.7501H21.7179ZM27.1135 77.8401C26.7235 77.8401 26.386 77.7551 26.101 77.5851C25.821 77.4151 25.6035 77.1826 25.4485 76.8876C25.2935 76.5926 25.216 76.2601 25.216 75.8901C25.216 75.4951 25.296 75.1526 25.456 74.8626C25.616 74.5726 25.8385 74.3476 26.1235 74.1876C26.4085 74.0226 26.7385 73.9401 27.1135 73.9401C27.4835 73.9401 27.806 74.0201 28.081 74.1801C28.361 74.3401 28.5785 74.5601 28.7335 74.8401C28.8935 75.1201 28.9735 75.4426 28.9735 75.8076C28.9735 75.8726 28.971 75.9376 28.966 76.0026C28.961 76.0626 28.9535 76.1201 28.9435 76.1751H26.1835C26.1985 76.3501 26.2435 76.5051 26.3185 76.6401C26.3985 76.7701 26.5035 76.8726 26.6335 76.9476C26.7685 77.0176 26.921 77.0526 27.091 77.0526C27.266 77.0526 27.416 77.0151 27.541 76.9401C27.671 76.8651 27.7735 76.7501 27.8485 76.5951H28.876C28.806 76.8151 28.6935 77.0201 28.5385 77.2101C28.3835 77.4001 28.186 77.5526 27.946 77.6676C27.711 77.7826 27.4335 77.8401 27.1135 77.8401ZM26.191 75.5376H27.9835C27.9785 75.2876 27.886 75.0901 27.706 74.9451C27.531 74.8001 27.3235 74.7276 27.0835 74.7276C26.8785 74.7276 26.6885 74.7926 26.5135 74.9226C26.3385 75.0476 26.231 75.2526 26.191 75.5376ZM29.4815 77.7501V74.0301H30.434V74.5851C30.564 74.3751 30.729 74.2151 30.929 74.1051C31.129 73.9951 31.3515 73.9401 31.5965 73.9401V74.9451H31.3415C31.0365 74.9451 30.809 75.0176 30.659 75.1626C30.509 75.3076 30.434 75.5501 30.434 75.8901V77.7501H29.4815ZM32.39 79.4001L33.2075 77.5776L31.7 74.0301H32.7725L33.7325 76.5651L34.715 74.0301H35.7275L33.4025 79.4001H32.39ZM39.5347 77.8401C39.2997 77.8401 39.0747 77.8051 38.8597 77.7351C38.6497 77.6601 38.4622 77.5526 38.2972 77.4126C38.1372 77.2726 38.0097 77.1051 37.9147 76.9101C37.8197 76.7101 37.7722 76.4851 37.7722 76.2351C37.7722 76.0601 37.7997 75.8926 37.8547 75.7326C37.9097 75.5726 37.9872 75.4201 38.0872 75.2751C38.1922 75.1301 38.3197 75.0001 38.4697 74.8851L38.5372 74.8326L38.4697 74.7351C38.3697 74.5901 38.2947 74.4476 38.2447 74.3076C38.1997 74.1626 38.1772 74.0151 38.1772 73.8651C38.1772 73.5751 38.2447 73.3226 38.3797 73.1076C38.5197 72.8876 38.7097 72.7176 38.9497 72.5976C39.1947 72.4726 39.4747 72.4101 39.7897 72.4101C40.1047 72.4101 40.3822 72.4726 40.6222 72.5976C40.8672 72.7176 41.0572 72.8901 41.1922 73.1151C41.3322 73.3401 41.4022 73.6101 41.4022 73.9251H40.4497C40.4497 73.8201 40.4272 73.7176 40.3822 73.6176C40.3372 73.5176 40.2647 73.4351 40.1647 73.3701C40.0647 73.3051 39.9347 73.2726 39.7747 73.2726C39.6297 73.2726 39.5097 73.3026 39.4147 73.3626C39.3197 73.4226 39.2497 73.4976 39.2047 73.5876C39.1597 73.6776 39.1372 73.7701 39.1372 73.8651C39.1372 74.0501 39.2047 74.2276 39.3397 74.3976C39.4797 74.5676 39.6697 74.7726 39.9097 75.0126L40.8172 75.9201L41.5672 74.7126H42.5872L41.4397 76.5426L42.6472 77.7501H41.4397L40.9297 77.2401L40.8547 77.3151C40.6797 77.4901 40.4772 77.6226 40.2472 77.7126C40.0222 77.7976 39.7847 77.8401 39.5347 77.8401ZM39.5947 76.9626C39.7247 76.9626 39.8472 76.9401 39.9622 76.8951C40.0772 76.8451 40.1997 76.7601 40.3297 76.6401L39.1222 75.4401C38.9822 75.5501 38.8822 75.6651 38.8222 75.7851C38.7622 75.9051 38.7322 76.0301 38.7322 76.1601C38.7322 76.3101 38.7722 76.4451 38.8522 76.5651C38.9322 76.6851 39.0372 76.7826 39.1672 76.8576C39.3022 76.9276 39.4447 76.9626 39.5947 76.9626ZM47.2999 77.8401C46.8049 77.8401 46.3724 77.7276 46.0024 77.5026C45.6324 77.2776 45.3449 76.9626 45.1399 76.5576C44.9349 76.1526 44.8324 75.6851 44.8324 75.1551C44.8324 74.6401 44.9324 74.1751 45.1324 73.7601C45.3324 73.3451 45.6274 73.0176 46.0174 72.7776C46.4124 72.5326 46.8924 72.4101 47.4574 72.4101C48.0724 72.4101 48.5824 72.5576 48.9874 72.8526C49.3924 73.1476 49.6549 73.5551 49.7749 74.0751H48.7024C48.6224 73.8301 48.4774 73.6401 48.2674 73.5051C48.0574 73.3651 47.7874 73.2951 47.4574 73.2951C47.1074 73.2951 46.8099 73.3701 46.5649 73.5201C46.3199 73.6701 46.1324 73.8851 46.0024 74.1651C45.8774 74.4401 45.8149 74.7726 45.8149 75.1626C45.8149 75.5476 45.8774 75.8776 46.0024 76.1526C46.1324 76.4226 46.3149 76.6301 46.5499 76.7751C46.7899 76.9151 47.0699 76.9851 47.3899 76.9851C47.8399 76.9851 48.1849 76.8701 48.4249 76.6401C48.6649 76.4101 48.8174 76.1051 48.8824 75.7251H47.2099V74.9151H49.8724V77.7501H48.9874L48.9124 77.0601C48.7424 77.3101 48.5299 77.5026 48.2749 77.6376C48.0199 77.7726 47.6949 77.8401 47.2999 77.8401ZM50.5973 77.7501V72.5001H51.5573V77.7501H50.5973ZM53.3779 77.8401C53.1579 77.8401 52.9529 77.7951 52.7629 77.7051C52.5729 77.6151 52.4179 77.4876 52.2979 77.3226C52.1829 77.1526 52.1254 76.9526 52.1254 76.7226C52.1254 76.4476 52.1929 76.2226 52.3279 76.0476C52.4629 75.8726 52.6479 75.7426 52.8829 75.6576C53.1229 75.5726 53.3904 75.5301 53.6854 75.5301H54.5704C54.5704 75.3601 54.5429 75.2176 54.4879 75.1026C54.4379 74.9876 54.3604 74.9001 54.2554 74.8401C54.1554 74.7751 54.0304 74.7426 53.8804 74.7426C53.7054 74.7426 53.5479 74.7826 53.4079 74.8626C53.2729 74.9376 53.1904 75.0651 53.1604 75.2451H52.2004C52.2254 74.9751 52.3179 74.7426 52.4779 74.5476C52.6379 74.3526 52.8429 74.2026 53.0929 74.0976C53.3429 73.9926 53.6104 73.9401 53.8954 73.9401C54.2454 73.9401 54.5404 74.0051 54.7804 74.1351C55.0254 74.2651 55.2129 74.4501 55.3429 74.6901C55.4729 74.9251 55.5379 75.2051 55.5379 75.5301V76.6626C55.5479 76.7726 55.5879 76.8476 55.6579 76.8876C55.7279 76.9276 55.8204 76.9476 55.9354 76.9476V77.7501C55.7004 77.7501 55.5029 77.7276 55.3429 77.6826C55.1879 77.6376 55.0604 77.5726 54.9604 77.4876C54.8604 77.3976 54.7754 77.2851 54.7054 77.1501C54.5904 77.3451 54.4104 77.5101 54.1654 77.6451C53.9254 77.7751 53.6629 77.8401 53.3779 77.8401ZM53.6554 77.0676C53.8204 77.0676 53.9704 77.0301 54.1054 76.9551C54.2454 76.8801 54.3579 76.7751 54.4429 76.6401C54.5279 76.5051 54.5704 76.3501 54.5704 76.1751V76.1451H53.7454C53.6354 76.1451 53.5304 76.1626 53.4304 76.1976C53.3304 76.2276 53.2504 76.2776 53.1904 76.3476C53.1304 76.4126 53.1004 76.5026 53.1004 76.6176C53.1004 76.7726 53.1529 76.8876 53.2579 76.9626C53.3679 77.0326 53.5004 77.0676 53.6554 77.0676ZM57.862 77.8401C57.582 77.8401 57.3195 77.7901 57.0745 77.6901C56.8295 77.5851 56.627 77.4376 56.467 77.2476C56.312 77.0576 56.227 76.8351 56.212 76.5801H57.172C57.197 76.7401 57.2745 76.8651 57.4045 76.9551C57.5395 77.0451 57.6895 77.0901 57.8545 77.0901C57.9945 77.0901 58.1245 77.0601 58.2445 77.0001C58.3695 76.9351 58.432 76.8351 58.432 76.7001C58.432 76.5951 58.387 76.5126 58.297 76.4526C58.207 76.3926 58.102 76.3451 57.982 76.3101C57.862 76.2751 57.752 76.2451 57.652 76.2201C57.402 76.1601 57.1745 76.0901 56.9695 76.0101C56.7645 75.9251 56.602 75.8101 56.482 75.6651C56.362 75.5151 56.302 75.3176 56.302 75.0726C56.302 74.8326 56.3695 74.6276 56.5045 74.4576C56.6445 74.2876 56.827 74.1601 57.052 74.0751C57.282 73.9851 57.5295 73.9401 57.7945 73.9401C58.2095 73.9401 58.5595 74.0451 58.8445 74.2551C59.1295 74.4651 59.2845 74.7751 59.3095 75.1851H58.402C58.387 75.0251 58.3195 74.9051 58.1995 74.8251C58.0845 74.7401 57.9395 74.6976 57.7645 74.6976C57.6245 74.6976 57.4995 74.7226 57.3895 74.7726C57.2795 74.8226 57.2245 74.9176 57.2245 75.0576C57.2245 75.1576 57.2695 75.2401 57.3595 75.3051C57.4495 75.3651 57.557 75.4151 57.682 75.4551C57.807 75.4901 57.917 75.5201 58.012 75.5451C58.272 75.6101 58.4995 75.6851 58.6945 75.7701C58.8945 75.8551 59.052 75.9701 59.167 76.1151C59.282 76.2601 59.342 76.4551 59.347 76.7001C59.347 76.9451 59.277 77.1526 59.137 77.3226C59.002 77.4926 58.822 77.6226 58.597 77.7126C58.372 77.7976 58.127 77.8401 57.862 77.8401ZM61.4142 77.8401C61.1342 77.8401 60.8717 77.7901 60.6267 77.6901C60.3817 77.5851 60.1792 77.4376 60.0192 77.2476C59.8642 77.0576 59.7792 76.8351 59.7642 76.5801H60.7242C60.7492 76.7401 60.8267 76.8651 60.9567 76.9551C61.0917 77.0451 61.2417 77.0901 61.4067 77.0901C61.5467 77.0901 61.6767 77.0601 61.7967 77.0001C61.9217 76.9351 61.9842 76.8351 61.9842 76.7001C61.9842 76.5951 61.9392 76.5126 61.8492 76.4526C61.7592 76.3926 61.6542 76.3451 61.5342 76.3101C61.4142 76.2751 61.3042 76.2451 61.2042 76.2201C60.9542 76.1601 60.7267 76.0901 60.5217 76.0101C60.3167 75.9251 60.1542 75.8101 60.0342 75.6651C59.9142 75.5151 59.8542 75.3176 59.8542 75.0726C59.8542 74.8326 59.9217 74.6276 60.0567 74.4576C60.1967 74.2876 60.3792 74.1601 60.6042 74.0751C60.8342 73.9851 61.0817 73.9401 61.3467 73.9401C61.7617 73.9401 62.1117 74.0451 62.3967 74.2551C62.6817 74.4651 62.8367 74.7751 62.8617 75.1851H61.9542C61.9392 75.0251 61.8717 74.9051 61.7517 74.8251C61.6367 74.7401 61.4917 74.6976 61.3167 74.6976C61.1767 74.6976 61.0517 74.7226 60.9417 74.7726C60.8317 74.8226 60.7767 74.9176 60.7767 75.0576C60.7767 75.1576 60.8217 75.2401 60.9117 75.3051C61.0017 75.3651 61.1092 75.4151 61.2342 75.4551C61.3592 75.4901 61.4692 75.5201 61.5642 75.5451C61.8242 75.6101 62.0517 75.6851 62.2467 75.7701C62.4467 75.8551 62.6042 75.9701 62.7192 76.1151C62.8342 76.2601 62.8942 76.4551 62.8992 76.7001C62.8992 76.9451 62.8292 77.1526 62.6892 77.3226C62.5542 77.4926 62.3742 77.6226 62.1492 77.7126C61.9242 77.7976 61.6792 77.8401 61.4142 77.8401ZM65.2214 77.8401C64.8314 77.8401 64.4939 77.7551 64.2089 77.5851C63.9289 77.4151 63.7114 77.1826 63.5564 76.8876C63.4014 76.5926 63.3239 76.2601 63.3239 75.8901C63.3239 75.4951 63.4039 75.1526 63.5639 74.8626C63.7239 74.5726 63.9464 74.3476 64.2314 74.1876C64.5164 74.0226 64.8464 73.9401 65.2214 73.9401C65.5914 73.9401 65.9139 74.0201 66.1889 74.1801C66.4689 74.3401 66.6864 74.5601 66.8414 74.8401C67.0014 75.1201 67.0814 75.4426 67.0814 75.8076C67.0814 75.8726 67.0789 75.9376 67.0739 76.0026C67.0689 76.0626 67.0614 76.1201 67.0514 76.1751H64.2914C64.3064 76.3501 64.3514 76.5051 64.4264 76.6401C64.5064 76.7701 64.6114 76.8726 64.7414 76.9476C64.8764 77.0176 65.0289 77.0526 65.1989 77.0526C65.3739 77.0526 65.5239 77.0151 65.6489 76.9401C65.7789 76.8651 65.8814 76.7501 65.9564 76.5951H66.9839C66.9139 76.8151 66.8014 77.0201 66.6464 77.2101C66.4914 77.4001 66.2939 77.5526 66.0539 77.6676C65.8189 77.7826 65.5414 77.8401 65.2214 77.8401ZM64.2989 75.5376H66.0914C66.0864 75.2876 65.9939 75.0901 65.8139 74.9451C65.6389 74.8001 65.4314 74.7276 65.1914 74.7276C64.9864 74.7276 64.7964 74.7926 64.6214 74.9226C64.4464 75.0476 64.3389 75.2526 64.2989 75.5376ZM69.112 77.8401C68.832 77.8401 68.5695 77.7901 68.3245 77.6901C68.0795 77.5851 67.877 77.4376 67.717 77.2476C67.562 77.0576 67.477 76.8351 67.462 76.5801H68.422C68.447 76.7401 68.5245 76.8651 68.6545 76.9551C68.7895 77.0451 68.9395 77.0901 69.1045 77.0901C69.2445 77.0901 69.3745 77.0601 69.4945 77.0001C69.6195 76.9351 69.682 76.8351 69.682 76.7001C69.682 76.5951 69.637 76.5126 69.547 76.4526C69.457 76.3926 69.352 76.3451 69.232 76.3101C69.112 76.2751 69.002 76.2451 68.902 76.2201C68.652 76.1601 68.4245 76.0901 68.2195 76.0101C68.0145 75.9251 67.852 75.8101 67.732 75.6651C67.612 75.5151 67.552 75.3176 67.552 75.0726C67.552 74.8326 67.6195 74.6276 67.7545 74.4576C67.8945 74.2876 68.077 74.1601 68.302 74.0751C68.532 73.9851 68.7795 73.9401 69.0445 73.9401C69.4595 73.9401 69.8095 74.0451 70.0945 74.2551C70.3795 74.4651 70.5345 74.7751 70.5595 75.1851H69.652C69.637 75.0251 69.5695 74.9051 69.4495 74.8251C69.3345 74.7401 69.1895 74.6976 69.0145 74.6976C68.8745 74.6976 68.7495 74.7226 68.6395 74.7726C68.5295 74.8226 68.4745 74.9176 68.4745 75.0576C68.4745 75.1576 68.5195 75.2401 68.6095 75.3051C68.6995 75.3651 68.807 75.4151 68.932 75.4551C69.057 75.4901 69.167 75.5201 69.262 75.5451C69.522 75.6101 69.7495 75.6851 69.9445 75.7701C70.1445 75.8551 70.302 75.9701 70.417 76.1151C70.532 76.2601 70.592 76.4551 70.597 76.7001C70.597 76.9451 70.527 77.1526 70.387 77.3226C70.252 77.4926 70.072 77.6226 69.847 77.7126C69.622 77.7976 69.377 77.8401 69.112 77.8401Z" fill="white"/>
</svg>
