<svg width="157" height="206" viewBox="0 0 157 206" fill="none" xmlns="http://www.w3.org/2000/svg">
<path d="M155.971 90.7447L120.651 79.1458L32.8877 94.4635C18.8337 96.9187 8.31793 108.734 7.52362 122.987L0.970703 240.474H155.962V90.7537L155.971 90.7447Z" fill="white" stroke="#1E1E1E" stroke-width="1.94109" stroke-linecap="round" stroke-linejoin="round"/>
<path d="M129.199 81.953L39.7746 99.6627C33.3028 100.944 28.4106 106.27 27.6794 112.823L21.5324 167.712H35.2434L39.8469 117.408C40.4517 110.756 45.3443 105.295 51.8884 103.959L140.924 85.7983L129.208 81.953H129.199Z" fill="#98D81E"/>
<path d="M48.9628 91.3402L53.3045 90.8979L55.6876 14.6073L79.3637 8.27983L79.138 86.3937L83.5066 85.6265L84.2559 2.23218L50.8042 9.44423L48.9628 91.3402Z" fill="#1E1E1E"/>
<path d="M47.9524 29.6902L56.3198 28.228L56.6989 14.6072L77.5952 9.01992V24.3918L85.2676 22.1532V1.45584L48.9996 9.01992L47.9524 29.6902Z" fill="#1E1E1E" stroke="#1E1E1E" stroke-width="2.91163" stroke-linecap="round" stroke-linejoin="round"/>
<path d="M155.971 90.7443V226.23H47.8984V135.551C47.8984 120.324 58.8747 107.317 73.8764 104.762L155.971 90.7443Z" fill="white" stroke="#1E1E1E" stroke-width="1.94109" stroke-linecap="round" stroke-linejoin="round"/>
</svg>
