<svg width="235" height="112" viewBox="0 0 235 112" fill="none" xmlns="http://www.w3.org/2000/svg">
<path d="M179.228 0.780029H0.765625V116.093H179.228V0.780029Z" fill="#CEE886"/>
<path d="M179.227 116.858H0.765015C0.562515 116.858 0.367353 116.775 0.224854 116.633C0.0823535 116.49 0 116.295 0 116.093V0.780029C0 0.577529 0.0823535 0.382551 0.224854 0.240051C0.367353 0.0975513 0.562515 0.0150146 0.765015 0.0150146H179.227C179.43 0.0150146 179.625 0.0975513 179.767 0.240051C179.91 0.382551 179.992 0.577529 179.992 0.780029V116.093C179.992 116.295 179.91 116.49 179.767 116.633C179.625 116.775 179.43 116.858 179.227 116.858ZM1.52985 115.32H178.462V1.52252H1.52985V115.32Z" fill="#1E1E1E"/>
<path d="M179.229 116.085H234.233V0.772522H179.229V116.085Z" fill="#98D81E"/>
<path d="M234.225 116.858H179.22C179.018 116.858 178.823 116.775 178.68 116.633C178.538 116.49 178.455 116.295 178.455 116.093V0.780029C178.455 0.577529 178.538 0.382551 178.68 0.240051C178.823 0.0975513 179.018 0.0150146 179.22 0.0150146H234.225C234.427 0.0150146 234.623 0.0975513 234.765 0.240051C234.908 0.382551 234.99 0.577529 234.99 0.780029V116.093C234.99 116.19 234.968 116.295 234.93 116.385C234.893 116.475 234.833 116.565 234.765 116.633C234.698 116.708 234.608 116.76 234.518 116.797C234.428 116.835 234.322 116.858 234.225 116.858ZM179.985 115.32H233.453V1.52252H179.985V115.32Z" fill="#1E1E1E"/>
<path d="M73.5153 0.780029H106.463V11.4001C106.463 13.1401 105.773 14.8125 104.543 16.035C103.313 17.265 101.64 17.955 99.9078 17.955H80.0628C78.3228 17.955 76.6577 17.265 75.4277 16.035C74.1977 14.805 73.5078 13.1326 73.5078 11.4001V0.780029H73.5153Z" fill="white"/>
<path d="M99.9153 18.7201H80.0778C78.1353 18.7201 76.2752 17.9401 74.9027 16.5676C73.5302 15.1951 72.7578 13.335 72.7578 11.3925V0.772522C72.7578 0.570022 72.8402 0.375044 72.9827 0.232544C73.1252 0.0900439 73.3201 0.00750732 73.5226 0.00750732H106.47C106.673 0.00750732 106.868 0.0900439 107.01 0.232544C107.153 0.375044 107.235 0.570022 107.235 0.772522V11.3925C107.235 13.335 106.463 15.1951 105.09 16.5676C103.718 17.9401 101.858 18.7126 99.9153 18.7201ZM74.2877 1.52252V11.3775C74.2877 12.915 74.9027 14.385 75.9902 15.4725C77.0777 16.56 78.5476 17.1675 80.0851 17.175H99.9228C101.46 17.175 102.93 16.56 104.018 15.4725C105.105 14.385 105.713 12.915 105.72 11.3775V1.52252H74.2952H74.2877Z" fill="#1E1E1E"/>
<path d="M196.17 0.780029H217.275V14.5725C217.275 15.015 217.185 15.4575 217.02 15.87C216.847 16.2825 216.6 16.6575 216.285 16.9725C215.97 17.2875 215.595 17.535 215.182 17.7075C214.77 17.88 214.328 17.9626 213.885 17.9626H199.582C198.682 17.9626 197.82 17.6025 197.182 16.965C196.545 16.3275 196.185 15.465 196.185 14.565V0.772522H196.177L196.17 0.780029Z" fill="white"/>
<path d="M213.878 18.7201H199.575C198.472 18.7201 197.415 18.2776 196.635 17.4976C195.855 16.7176 195.42 15.66 195.42 14.5575V0.765015C195.42 0.562515 195.502 0.367537 195.645 0.225037C195.787 0.0825366 195.982 0 196.185 0H217.29C217.493 0 217.688 0.0825366 217.83 0.225037C217.973 0.367537 218.055 0.562515 218.055 0.765015V14.5575C218.055 15.105 217.942 15.645 217.74 16.155C217.53 16.6575 217.222 17.1226 216.832 17.5051C216.442 17.8876 215.985 18.195 215.475 18.405C214.965 18.615 214.425 18.7201 213.878 18.7201ZM196.935 1.52252V14.535C196.935 15.2325 197.212 15.9 197.707 16.395C198.202 16.89 198.87 17.1675 199.567 17.1675H213.87C214.567 17.1675 215.235 16.89 215.73 16.395C216.225 15.9 216.503 15.2325 216.503 14.535V1.52252H196.942H196.935Z" fill="#1E1E1E"/>
<path d="M93.6976 116.093H65.2051L150.33 0.780029H178.823L93.6976 116.093Z" fill="#98D81E"/>
<path d="M93.6972 116.858H65.2122C65.0697 116.858 64.9346 116.82 64.8071 116.745C64.6871 116.67 64.5896 116.565 64.5296 116.438C64.4621 116.31 64.4322 116.168 64.4472 116.033C64.4547 115.89 64.5071 115.755 64.5971 115.643L149.722 0.330048C149.79 0.232548 149.887 0.157504 149.992 0.0975037C150.097 0.0450037 150.217 0.0150146 150.337 0.0150146H178.83C178.972 0.0150146 179.107 0.052533 179.227 0.127533C179.347 0.202533 179.445 0.307559 179.505 0.435059C179.565 0.562559 179.595 0.704996 179.587 0.839996C179.58 0.982496 179.527 1.11751 179.445 1.23001L94.3197 116.543C94.2447 116.64 94.1546 116.715 94.0421 116.775C93.9371 116.828 93.8172 116.858 93.6972 116.858ZM66.7272 115.32H93.2921L177.315 1.52252H150.75L66.7272 115.32Z" fill="#1E1E1E"/>
<path d="M93.4877 76.23C93.2852 76.23 93.0902 76.3125 92.9477 76.455C92.8052 76.5975 92.7227 76.7925 92.7227 76.995V114.922C92.7227 115.125 92.8052 115.32 92.9477 115.463C93.0902 115.605 93.2852 115.687 93.4877 115.687C93.6902 115.687 93.8851 115.605 94.0276 115.463C94.1701 115.32 94.2527 115.125 94.2527 114.922V77.0175C94.2527 76.9125 94.2376 76.8075 94.2001 76.7175C94.1626 76.62 94.1102 76.5375 94.0352 76.4625C93.9602 76.3875 93.8776 76.3275 93.7801 76.29C93.6826 76.2525 93.5852 76.23 93.4802 76.23H93.4877Z" fill="#1E1E1E"/>
<path d="M109.087 55.575C108.885 55.575 108.69 55.6575 108.547 55.8C108.405 55.9425 108.322 56.1375 108.322 56.34V94.2825C108.322 94.485 108.405 94.68 108.547 94.8225C108.69 94.965 108.885 95.0475 109.087 95.0475C109.29 95.0475 109.485 94.965 109.627 94.8225C109.77 94.68 109.852 94.485 109.852 94.2825V56.34C109.852 56.1375 109.77 55.9425 109.627 55.8C109.485 55.6575 109.29 55.575 109.087 55.575Z" fill="#1E1E1E"/>
<path d="M124.681 34.4025C124.479 34.4025 124.284 34.485 124.141 34.6275C123.999 34.77 123.916 34.965 123.916 35.1675V73.365C123.916 73.5675 123.999 73.7625 124.141 73.905C124.284 74.0475 124.479 74.13 124.681 74.13C124.884 74.13 125.079 74.0475 125.221 73.905C125.364 73.7625 125.446 73.5675 125.446 73.365V35.1675C125.446 34.965 125.364 34.77 125.221 34.6275C125.079 34.485 124.884 34.4025 124.681 34.4025Z" fill="#1E1E1E"/>
<path d="M140.28 13.7175C140.078 13.7175 139.883 13.8001 139.74 13.9426C139.598 14.0851 139.516 14.28 139.516 14.4825V52.395C139.516 52.5975 139.598 52.7926 139.74 52.9351C139.883 53.0776 140.078 53.16 140.28 53.16C140.483 53.16 140.678 53.0776 140.821 52.9351C140.963 52.7926 141.045 52.5975 141.045 52.395V14.4825C141.045 14.28 140.963 14.0851 140.821 13.9426C140.678 13.8001 140.483 13.7175 140.28 13.7175Z" fill="#1E1E1E"/>
<path d="M155.872 0C155.67 0 155.475 0.0825366 155.332 0.225037C155.19 0.367537 155.107 0.562515 155.107 0.765015V31.5375C155.107 31.74 155.19 31.935 155.332 32.0775C155.475 32.22 155.67 32.3026 155.872 32.3026C156.075 32.3026 156.27 32.22 156.412 32.0775C156.555 31.935 156.637 31.74 156.637 31.5375V0.780029C156.637 0.675029 156.622 0.577511 156.585 0.480011C156.547 0.382511 156.487 0.300037 156.42 0.225037C156.345 0.150037 156.263 0.0975586 156.173 0.0600586C156.075 0.0225586 155.977 0 155.88 0H155.872Z" fill="#1E1E1E"/>
</svg>
