<svg width="184" height="73" viewBox="0 0 184 73" fill="none" xmlns="http://www.w3.org/2000/svg">
<path d="M182.88 2.12256H178.837C178.417 2.12256 178.072 2.46757 178.072 2.88757V75.225C178.072 75.645 178.417 75.9901 178.837 75.9901H182.88C183.3 75.9901 183.645 75.645 183.645 75.225V2.88757C183.645 2.46757 183.3 2.12256 182.88 2.12256Z" fill="#1E1E1E"/>
<path d="M128.378 0.735107H0.765625V75.3226H128.378V0.735107Z" fill="#F6DDE1"/>
<path d="M128.385 76.1026H0.765015C0.562515 76.1026 0.367537 76.02 0.225037 75.8775C0.0825366 75.735 0 75.5401 0 75.3376V0.765015C0 0.562515 0.0825366 0.367537 0.225037 0.225037C0.367537 0.0825366 0.562515 0 0.765015 0H128.385C128.587 0 128.782 0.0825366 128.925 0.225037C129.067 0.367537 129.15 0.562515 129.15 0.765015V75.3376C129.15 75.5401 129.067 75.735 128.925 75.8775C128.782 76.02 128.587 76.1026 128.385 76.1026ZM1.53003 74.5725H127.612V1.53003H1.53003V74.5725Z" fill="#1E1E1E"/>
<path d="M128.385 75.33H178.837V0.742493H128.385V75.33Z" fill="#F6DDE1"/>
<path d="M178.837 76.1026H128.384C128.182 76.1026 127.987 76.02 127.844 75.8775C127.702 75.735 127.619 75.5401 127.619 75.3376V0.765015C127.619 0.562515 127.702 0.367537 127.844 0.225037C127.987 0.0825366 128.182 0 128.384 0H178.837C179.039 0 179.234 0.0825366 179.377 0.225037C179.519 0.367537 179.602 0.562515 179.602 0.765015V75.3376C179.602 75.5401 179.519 75.735 179.377 75.8775C179.234 76.02 179.039 76.1026 178.837 76.1026ZM129.149 74.5725H178.072V1.53003H129.149V74.5725Z" fill="#1E1E1E"/>
<path d="M115.493 46.6875L108.338 41.1075L101.19 35.5275L94.0804 41.1525L86.9629 46.785L93.9079 46.7625L93.983 69.45L108.623 69.405L108.548 46.7175L115.493 46.695V46.6875Z" fill="white"/>
<path d="M93.983 70.2075C93.7805 70.2075 93.5855 70.125 93.443 69.9825C93.3005 69.84 93.218 69.6451 93.218 69.4426L93.1504 47.5126H86.9704C86.8129 47.5126 86.6556 47.46 86.5281 47.37C86.4006 47.28 86.303 47.1525 86.2505 47.0025C86.198 46.8525 86.198 46.6875 86.2355 46.5375C86.2805 46.38 86.3705 46.245 86.498 46.1475L100.726 34.9125C100.861 34.8075 101.025 34.7476 101.198 34.7476C101.37 34.7476 101.536 34.8075 101.678 34.9125L115.98 46.0876C116.108 46.1851 116.198 46.3201 116.243 46.4701C116.288 46.6201 116.288 46.7851 116.235 46.9351C116.183 47.0851 116.086 47.2126 115.958 47.3101C115.831 47.4076 115.673 47.4525 115.515 47.4525H109.343L109.41 69.375C109.41 69.5775 109.328 69.7726 109.186 69.9151C109.043 70.0576 108.848 70.14 108.646 70.14L94.0055 70.1851V70.2075H93.983ZM93.9079 45.9825C94.1104 45.9825 94.3054 46.065 94.4479 46.2075C94.5904 46.35 94.673 46.5451 94.673 46.7476L94.7405 68.67L107.851 68.6325L107.783 46.71C107.783 46.5075 107.865 46.3125 108.008 46.17C108.15 46.0275 108.345 45.945 108.548 45.9375H113.281L101.198 36.5025L89.1754 46.0126H93.9079V45.9825Z" fill="#1E1E1E"/>
<path d="M145.801 75.33H161.431V0.742493H145.801V75.33Z" fill="#FFB9FF"/>
<path d="M161.422 76.1026H145.792C145.59 76.1026 145.395 76.02 145.252 75.8775C145.11 75.735 145.027 75.5401 145.027 75.3376V0.765015C145.027 0.562515 145.11 0.367537 145.252 0.225037C145.395 0.0825366 145.59 0 145.792 0H161.422C161.625 0 161.82 0.0825366 161.962 0.225037C162.105 0.367537 162.187 0.562515 162.187 0.765015V75.3376C162.187 75.5401 162.105 75.735 161.962 75.8775C161.82 76.02 161.625 76.1026 161.422 76.1026ZM146.557 74.5725H160.657V1.53003H146.557V74.5725Z" fill="#1E1E1E"/>
</svg>
