<svg width="128" height="191" viewBox="0 0 128 191" fill="none" xmlns="http://www.w3.org/2000/svg">
<path d="M2.78998 23.175H97.6047L102.953 194.453H0.75L2.78998 23.175Z" fill="white" stroke="#1E1E1E" stroke-width="1.5" stroke-linecap="round" stroke-linejoin="round"/>
<path d="M91.9946 32.355H35.6699V61.155H91.9946V32.355Z" fill="#FFB9FF"/>
<path d="M97.6055 23.175L117.143 0.750031L126.998 183.405L102.953 194.453L97.6055 23.175Z" fill="white" stroke="#1E1E1E" stroke-width="1.5" stroke-linecap="round" stroke-linejoin="round"/>
<path d="M31.1634 0.750031H117.143L97.6058 23.175H2.79102L31.1634 0.750031Z" fill="white" stroke="#1E1E1E" stroke-width="1.5" stroke-linecap="round" stroke-linejoin="round"/>
<path d="M55.1524 38.5L53.2924 40.5175L55.3099 43.75H54.1774L52.6474 41.215L52.1299 41.7925V43.75H51.1699V38.5H52.1299V40.5175L53.9824 38.5H55.1524ZM56.2837 39.55C56.1137 39.55 55.9662 39.49 55.8412 39.37C55.7212 39.245 55.6612 39.0975 55.6612 38.9275C55.6612 38.7525 55.7212 38.605 55.8412 38.485C55.9662 38.365 56.1137 38.305 56.2837 38.305C56.4587 38.305 56.6062 38.365 56.7262 38.485C56.8462 38.605 56.9062 38.7525 56.9062 38.9275C56.9062 39.0975 56.8462 39.245 56.7262 39.37C56.6062 39.49 56.4587 39.55 56.2837 39.55ZM55.8037 43.75V40.03H56.7637V43.75H55.8037ZM58.9279 43.75C58.5279 43.75 58.2254 43.6525 58.0204 43.4575C57.8204 43.2625 57.7204 42.97 57.7204 42.58V40.8325H57.2404V40.03H57.7204V39.1225H58.6804V40.03H59.5279V40.8325H58.6804V42.5875C58.6804 42.7275 58.7179 42.8225 58.7929 42.8725C58.8679 42.9225 58.9654 42.9475 59.0854 42.9475H59.5279V43.75H58.9279ZM61.7471 43.84C61.3721 43.84 61.0446 43.7575 60.7646 43.5925C60.4846 43.4225 60.2671 43.1925 60.1121 42.9025C59.9571 42.6075 59.8796 42.27 59.8796 41.89C59.8796 41.515 59.9546 41.18 60.1046 40.885C60.2596 40.59 60.4771 40.36 60.7571 40.195C61.0371 40.025 61.3671 39.94 61.7471 39.94C62.1971 39.94 62.5771 40.0525 62.8871 40.2775C63.2021 40.5025 63.4146 40.835 63.5246 41.275H62.4971C62.4521 41.13 62.3646 41.0075 62.2346 40.9075C62.1096 40.8025 61.9446 40.75 61.7396 40.75C61.5346 40.75 61.3671 40.8025 61.2371 40.9075C61.1071 41.0125 61.0096 41.1525 60.9446 41.3275C60.8846 41.4975 60.8546 41.685 60.8546 41.89C60.8546 42.095 60.8846 42.285 60.9446 42.46C61.0096 42.63 61.1071 42.7675 61.2371 42.8725C61.3671 42.9725 61.5346 43.0225 61.7396 43.0225C61.9346 43.0225 62.0946 42.98 62.2196 42.895C62.3446 42.805 62.4371 42.675 62.4971 42.505H63.5246C63.4596 42.785 63.3421 43.025 63.1721 43.225C63.0071 43.425 62.8021 43.5775 62.5571 43.6825C62.3171 43.7875 62.0471 43.84 61.7471 43.84ZM64.0792 43.75V38.5H65.0317V40.465C65.1617 40.29 65.3342 40.16 65.5492 40.075C65.7692 39.985 65.9892 39.94 66.2092 39.94C66.6392 39.94 66.9917 40.08 67.2667 40.36C67.5417 40.635 67.6792 41.035 67.6792 41.56V43.75H66.7267V41.6875C66.7267 41.4075 66.6542 41.1825 66.5092 41.0125C66.3692 40.8375 66.1617 40.75 65.8867 40.75C65.6117 40.75 65.3992 40.8375 65.2492 41.0125C65.1042 41.1825 65.0317 41.4075 65.0317 41.6875V43.75H64.0792ZM70.0681 43.84C69.6781 43.84 69.3406 43.755 69.0556 43.585C68.7756 43.415 68.5581 43.1825 68.4031 42.8875C68.2481 42.5925 68.1706 42.26 68.1706 41.89C68.1706 41.495 68.2506 41.1525 68.4106 40.8625C68.5706 40.5725 68.7931 40.3475 69.0781 40.1875C69.3631 40.0225 69.6931 39.94 70.0681 39.94C70.4381 39.94 70.7606 40.02 71.0356 40.18C71.3156 40.34 71.5331 40.56 71.6881 40.84C71.8481 41.12 71.9281 41.4425 71.9281 41.8075C71.9281 41.8725 71.9256 41.9375 71.9206 42.0025C71.9156 42.0625 71.9081 42.12 71.8981 42.175H69.1381C69.1531 42.35 69.1981 42.505 69.2731 42.64C69.3531 42.77 69.4581 42.8725 69.5881 42.9475C69.7231 43.0175 69.8756 43.0525 70.0456 43.0525C70.2206 43.0525 70.3706 43.015 70.4956 42.94C70.6256 42.865 70.7281 42.75 70.8031 42.595H71.8306C71.7606 42.815 71.6481 43.02 71.4931 43.21C71.3381 43.4 71.1406 43.5525 70.9006 43.6675C70.6656 43.7825 70.3881 43.84 70.0681 43.84ZM69.1456 41.5375H70.9381C70.9331 41.2875 70.8406 41.09 70.6606 40.945C70.4856 40.8 70.2781 40.7275 70.0381 40.7275C69.8331 40.7275 69.6431 40.7925 69.4681 40.9225C69.2931 41.0475 69.1856 41.2525 69.1456 41.5375ZM72.4361 43.75V40.03H73.3886V40.465C73.5186 40.29 73.6911 40.16 73.9061 40.075C74.1261 39.985 74.3461 39.94 74.5661 39.94C74.9961 39.94 75.3486 40.08 75.6236 40.36C75.8986 40.635 76.0361 41.035 76.0361 41.56V43.75H75.0836V41.6875C75.0836 41.4075 75.0111 41.1825 74.8661 41.0125C74.7261 40.8375 74.5186 40.75 74.2436 40.75C73.9686 40.75 73.7561 40.8375 73.6061 41.0125C73.4611 41.1825 73.3886 41.4075 73.3886 41.6875V43.75H72.4361ZM52.8141 53.84C52.3341 53.84 51.9416 53.745 51.6366 53.555C51.3366 53.36 51.1141 53.1025 50.9691 52.7825C50.8291 52.4625 50.7591 52.115 50.7591 51.74V48.5H51.7191V51.7475C51.7191 52.1575 51.8166 52.4625 52.0116 52.6625C52.2116 52.8625 52.4866 52.9625 52.8366 52.9625C53.1816 52.9625 53.4541 52.8625 53.6541 52.6625C53.8541 52.4625 53.9541 52.1575 53.9541 51.7475V48.5H54.9141V51.74C54.9141 52.135 54.8516 52.4675 54.7266 52.7375C54.6016 53.0075 54.4341 53.2225 54.2241 53.3825C54.0191 53.5425 53.7916 53.66 53.5416 53.735C53.2966 53.805 53.0541 53.84 52.8141 53.84ZM57.1555 53.75C56.7555 53.75 56.453 53.6525 56.248 53.4575C56.048 53.2625 55.948 52.97 55.948 52.58V50.8325H55.468V50.03H55.948V49.1225H56.908V50.03H57.7555V50.8325H56.908V52.5875C56.908 52.7275 56.9455 52.8225 57.0205 52.8725C57.0955 52.9225 57.193 52.9475 57.313 52.9475H57.7555V53.75H57.1555ZM60.0046 53.84C59.6146 53.84 59.2771 53.755 58.9921 53.585C58.7121 53.415 58.4946 53.1825 58.3396 52.8875C58.1846 52.5925 58.1071 52.26 58.1071 51.89C58.1071 51.495 58.1871 51.1525 58.3471 50.8625C58.5071 50.5725 58.7296 50.3475 59.0146 50.1875C59.2996 50.0225 59.6296 49.94 60.0046 49.94C60.3746 49.94 60.6971 50.02 60.9721 50.18C61.2521 50.34 61.4696 50.56 61.6246 50.84C61.7846 51.12 61.8646 51.4425 61.8646 51.8075C61.8646 51.8725 61.8621 51.9375 61.8571 52.0025C61.8521 52.0625 61.8446 52.12 61.8346 52.175H59.0746C59.0896 52.35 59.1346 52.505 59.2096 52.64C59.2896 52.77 59.3946 52.8725 59.5246 52.9475C59.6596 53.0175 59.8121 53.0525 59.9821 53.0525C60.1571 53.0525 60.3071 53.015 60.4321 52.94C60.5621 52.865 60.6646 52.75 60.7396 52.595H61.7671C61.6971 52.815 61.5846 53.02 61.4296 53.21C61.2746 53.4 61.0771 53.5525 60.8371 53.6675C60.6021 53.7825 60.3246 53.84 60.0046 53.84ZM59.0821 51.5375H60.8746C60.8696 51.2875 60.7771 51.09 60.5971 50.945C60.4221 50.8 60.2146 50.7275 59.9746 50.7275C59.7696 50.7275 59.5796 50.7925 59.4046 50.9225C59.2296 51.0475 59.1221 51.2525 59.0821 51.5375ZM62.3727 53.75V50.03H63.3252V50.465C63.4552 50.29 63.6277 50.16 63.8427 50.075C64.0627 49.985 64.2827 49.94 64.5027 49.94C64.9327 49.94 65.2852 50.08 65.5602 50.36C65.8352 50.635 65.9727 51.035 65.9727 51.56V53.75H65.0202V51.6875C65.0202 51.4075 64.9477 51.1825 64.8027 51.0125C64.6627 50.8375 64.4552 50.75 64.1802 50.75C63.9052 50.75 63.6927 50.8375 63.5427 51.0125C63.3977 51.1825 63.3252 51.4075 63.3252 51.6875V53.75H62.3727ZM68.1066 53.84C67.8266 53.84 67.5641 53.79 67.3191 53.69C67.0741 53.585 66.8716 53.4375 66.7116 53.2475C66.5566 53.0575 66.4716 52.835 66.4566 52.58H67.4166C67.4416 52.74 67.5191 52.865 67.6491 52.955C67.7841 53.045 67.9341 53.09 68.0991 53.09C68.2391 53.09 68.3691 53.06 68.4891 53C68.6141 52.935 68.6766 52.835 68.6766 52.7C68.6766 52.595 68.6316 52.5125 68.5416 52.4525C68.4516 52.3925 68.3466 52.345 68.2266 52.31C68.1066 52.275 67.9966 52.245 67.8966 52.22C67.6466 52.16 67.4191 52.09 67.2141 52.01C67.0091 51.925 66.8466 51.81 66.7266 51.665C66.6066 51.515 66.5466 51.3175 66.5466 51.0725C66.5466 50.8325 66.6141 50.6275 66.7491 50.4575C66.8891 50.2875 67.0716 50.16 67.2966 50.075C67.5266 49.985 67.7741 49.94 68.0391 49.94C68.4541 49.94 68.8041 50.045 69.0891 50.255C69.3741 50.465 69.5291 50.775 69.5541 51.185H68.6466C68.6316 51.025 68.5641 50.905 68.4441 50.825C68.3291 50.74 68.1841 50.6975 68.0091 50.6975C67.8691 50.6975 67.7441 50.7225 67.6341 50.7725C67.5241 50.8225 67.4691 50.9175 67.4691 51.0575C67.4691 51.1575 67.5141 51.24 67.6041 51.305C67.6941 51.365 67.8016 51.415 67.9266 51.455C68.0516 51.49 68.1616 51.52 68.2566 51.545C68.5166 51.61 68.7441 51.685 68.9391 51.77C69.1391 51.855 69.2966 51.97 69.4116 52.115C69.5266 52.26 69.5866 52.455 69.5916 52.7C69.5916 52.945 69.5216 53.1525 69.3816 53.3225C69.2466 53.4925 69.0666 53.6225 68.8416 53.7125C68.6166 53.7975 68.3716 53.84 68.1066 53.84ZM70.6538 49.55C70.4838 49.55 70.3363 49.49 70.2113 49.37C70.0913 49.245 70.0313 49.0975 70.0313 48.9275C70.0313 48.7525 70.0913 48.605 70.2113 48.485C70.3363 48.365 70.4838 48.305 70.6538 48.305C70.8288 48.305 70.9763 48.365 71.0963 48.485C71.2163 48.605 71.2763 48.7525 71.2763 48.9275C71.2763 49.0975 71.2163 49.245 71.0963 49.37C70.9763 49.49 70.8288 49.55 70.6538 49.55ZM70.1738 53.75V50.03H71.1338V53.75H70.1738ZM71.8355 53.75V48.5H72.7955V53.75H71.8355ZM74.9987 53.84C74.7187 53.84 74.4562 53.79 74.2112 53.69C73.9662 53.585 73.7637 53.4375 73.6037 53.2475C73.4487 53.0575 73.3637 52.835 73.3487 52.58H74.3087C74.3337 52.74 74.4112 52.865 74.5412 52.955C74.6762 53.045 74.8262 53.09 74.9912 53.09C75.1312 53.09 75.2612 53.06 75.3812 53C75.5062 52.935 75.5687 52.835 75.5687 52.7C75.5687 52.595 75.5237 52.5125 75.4337 52.4525C75.3437 52.3925 75.2387 52.345 75.1187 52.31C74.9987 52.275 74.8887 52.245 74.7887 52.22C74.5387 52.16 74.3112 52.09 74.1062 52.01C73.9012 51.925 73.7387 51.81 73.6187 51.665C73.4987 51.515 73.4387 51.3175 73.4387 51.0725C73.4387 50.8325 73.5062 50.6275 73.6412 50.4575C73.7812 50.2875 73.9637 50.16 74.1887 50.075C74.4187 49.985 74.6662 49.94 74.9312 49.94C75.3462 49.94 75.6962 50.045 75.9812 50.255C76.2662 50.465 76.4212 50.775 76.4462 51.185H75.5387C75.5237 51.025 75.4562 50.905 75.3362 50.825C75.2212 50.74 75.0762 50.6975 74.9012 50.6975C74.7612 50.6975 74.6362 50.7225 74.5262 50.7725C74.4162 50.8225 74.3612 50.9175 74.3612 51.0575C74.3612 51.1575 74.4062 51.24 74.4962 51.305C74.5862 51.365 74.6937 51.415 74.8187 51.455C74.9437 51.49 75.0537 51.52 75.1487 51.545C75.4087 51.61 75.6362 51.685 75.8312 51.77C76.0312 51.855 76.1887 51.97 76.3037 52.115C76.4187 52.26 76.4787 52.455 76.4837 52.7C76.4837 52.945 76.4137 53.1525 76.2737 53.3225C76.1387 53.4925 75.9587 53.6225 75.7337 53.7125C75.5087 53.7975 75.2637 53.84 74.9987 53.84Z" fill="white"/>
</svg>
