<svg width="158" height="175" viewBox="0 0 158 175" fill="none" xmlns="http://www.w3.org/2000/svg">
<path d="M0.75 51.0104H125.985V191.358L0.75 189.828V51.0104Z" fill="white" stroke="#1E1E1E" stroke-width="1.5" stroke-linecap="round" stroke-linejoin="round"/>
<path d="M50.7064 86.3505H7.37891V104.193H50.7064V86.3505Z" fill="#8D8DFF"/>
<path d="M60.9068 86.3505H54.4492V104.193H60.9068V86.3505Z" fill="#8D8DFF"/>
<path d="M71.9478 86.3505H65.4902V104.193H71.9478V86.3505Z" fill="#8D8DFF"/>
<path d="M82.9947 86.3505H76.5371V104.193H82.9947V86.3505Z" fill="#8D8DFF"/>
<path d="M156.569 8.53043V178.105L125.984 191.358V51.0104L156.569 8.53043Z" fill="white" stroke="#1E1E1E" stroke-width="1.5" stroke-linecap="round" stroke-linejoin="round"/>
<path d="M68.7224 4.45044L156.57 8.53044L125.985 51.0105H0.75L68.7224 4.45044Z" fill="white" stroke="#1E1E1E" stroke-width="1.5" stroke-linecap="round" stroke-linejoin="round"/>
<path d="M102.863 6.64044L54.9609 50.4779H73.8159L114.601 7.17294L102.863 6.64044Z" fill="#8D8DFF"/>
<path d="M72.7712 46.0906L67.7379 43.7349L68.4232 43.0308L72.5237 45.0438L71.6584 43.4166L69.1712 42.2622L69.846 41.5689L71.5708 42.4313L70.6568 40.7359L71.3368 40.0372L72.5529 42.4976L74.2029 43.3185L72.0797 39.274L72.7649 38.5699L75.256 43.5377L74.4609 44.3546L72.6511 43.4827L73.5664 45.2736L72.7712 46.0906ZM77.6664 41.1901C77.4049 41.4589 77.1139 41.6431 76.7935 41.7429C76.473 41.8357 76.1495 41.8383 75.823 41.7508C75.4965 41.6633 75.1953 41.4852 74.9194 41.2167C74.6292 40.9342 74.4412 40.6292 74.3554 40.3015C74.2696 39.9667 74.274 39.6396 74.3687 39.3201C74.4668 38.997 74.6415 38.7065 74.8925 38.4485C75.1541 38.1798 75.4469 37.9972 75.7709 37.9009C76.0913 37.8011 76.4147 37.7914 76.7411 37.8719C77.0709 37.9487 77.3774 38.1249 77.6605 38.4004C77.9292 38.662 78.11 38.9565 78.2028 39.2841C78.2956 39.6117 78.2983 39.9423 78.2109 40.2758C78.1234 40.6023 77.9419 40.9071 77.6664 41.1901ZM77.0803 40.5987C77.2198 40.4554 77.3043 40.2969 77.3337 40.1233C77.3631 39.9425 77.3465 39.7624 77.284 39.583C77.2179 39.4 77.1114 39.237 76.9645 39.094C76.796 38.9301 76.6196 38.8247 76.4351 38.7777C76.2541 38.7271 76.0808 38.7259 75.9153 38.7741C75.7497 38.8223 75.6042 38.9109 75.4787 39.0399C75.3427 39.1796 75.2564 39.3364 75.2198 39.5101C75.1868 39.6803 75.2015 39.8551 75.2641 40.0346C75.3265 40.207 75.4366 40.3699 75.5942 40.5234C75.7519 40.6768 75.9212 40.7824 76.1024 40.84C76.2869 40.8941 76.4656 40.9005 76.6383 40.8593C76.8074 40.8146 76.9547 40.7277 77.0803 40.5987ZM80.711 38.062C80.4495 38.3307 80.1585 38.515 79.8381 38.6148C79.5176 38.7075 79.1941 38.7101 78.8676 38.6226C78.5411 38.5351 78.2399 38.3571 77.964 38.0885C77.6738 37.8061 77.4858 37.501 77.4001 37.1733C77.3142 36.8386 77.3186 36.5114 77.4133 36.1919C77.5115 35.8688 77.6861 35.5783 77.9372 35.3203C78.1987 35.0516 78.4915 34.8691 78.8155 34.7727C79.1359 34.6729 79.4593 34.6633 79.7857 34.7437C80.1156 34.8206 80.422 34.9967 80.7051 35.2722C80.9738 35.5338 81.1546 35.8284 81.2474 36.1559C81.3403 36.4835 81.343 36.8141 81.2556 37.1476C81.168 37.4741 80.9865 37.7789 80.711 38.062ZM80.1249 37.4706C80.2644 37.3272 80.3489 37.1687 80.3784 36.9951C80.4077 36.8144 80.3912 36.6343 80.3286 36.4548C80.2625 36.2718 80.156 36.1088 80.0091 35.9659C79.8407 35.8019 79.6642 35.6965 79.4797 35.6495C79.2987 35.5989 79.1254 35.5977 78.9599 35.6459C78.7944 35.6941 78.6488 35.7827 78.5233 35.9117C78.3873 36.0515 78.301 36.2082 78.2645 36.3819C78.2314 36.5521 78.2462 36.7269 78.3087 36.9064C78.3711 37.0788 78.4812 37.2418 78.6388 37.3952C78.7965 37.5487 78.9659 37.6542 79.147 37.7119C79.3316 37.7659 79.5102 37.7724 79.6829 37.7311C79.852 37.6864 79.9994 37.5996 80.1249 37.4706ZM83.6092 35.0843C83.3581 35.3422 83.0792 35.5034 82.7724 35.5676C82.4656 35.6248 82.1576 35.6007 81.8486 35.4953C81.5395 35.3828 81.2559 35.201 80.9979 34.9499C80.7399 34.6988 80.5559 34.422 80.4457 34.1194C80.3319 33.8133 80.3048 33.5078 80.3643 33.2029C80.4203 32.8945 80.5703 32.6149 80.8144 32.3641C80.9818 32.1921 81.1763 32.064 81.3979 31.9797C81.623 31.8917 81.856 31.8603 82.0967 31.8853L80.6456 30.473L81.3204 29.7796L85.0826 33.4414L84.4078 34.1347L84.0262 33.7633C84.0859 33.9958 84.075 34.2294 83.9933 34.4638C83.9116 34.6983 83.7836 34.9051 83.6092 35.0843ZM83.1799 34.321C83.3194 34.1777 83.4056 34.021 83.4387 33.8508C83.4752 33.677 83.464 33.5022 83.4051 33.3262C83.3425 33.1467 83.2342 32.982 83.0802 32.832C82.8903 32.6472 82.7014 32.5366 82.5135 32.5002C82.322 32.4604 82.1453 32.4699 81.9835 32.5286C81.8216 32.5874 81.6884 32.6705 81.5838 32.778C81.4477 32.9178 81.3615 33.0745 81.3249 33.2482C81.2919 33.4184 81.3048 33.5915 81.3638 33.7675C81.4192 33.94 81.5239 34.1012 81.6779 34.2512C81.8284 34.3977 81.9942 34.4997 82.1753 34.5574C82.3565 34.615 82.5351 34.625 82.7114 34.5873C82.8877 34.5495 83.0439 34.4608 83.1799 34.321ZM86.8559 31.7485C86.5839 32.028 86.2875 32.2105 85.9669 32.2962C85.6498 32.3783 85.3315 32.372 85.012 32.2773C84.6925 32.1826 84.4002 32.0063 84.135 31.7482C83.852 31.4727 83.6623 31.1765 83.5661 30.8596C83.4699 30.5426 83.4638 30.2263 83.5479 29.9104C83.6285 29.5911 83.7995 29.2971 84.0611 29.0284C84.3192 28.7632 84.6014 28.5879 84.9079 28.5024C85.2178 28.4134 85.5272 28.4109 85.8359 28.4952C86.1482 28.5758 86.4351 28.7434 86.6967 28.998C86.7432 29.0433 86.7881 29.0904 86.8312 29.1394C86.8707 29.1848 86.9066 29.2303 86.9391 29.2758L85.0141 31.2537C85.1499 31.365 85.2924 31.4408 85.4414 31.4812C85.5904 31.5146 85.7371 31.5108 85.8815 31.47C86.0258 31.4221 86.1573 31.3372 86.2758 31.2154C86.3979 31.0899 86.4757 30.9563 86.5091 30.8144C86.546 30.6689 86.5351 30.5153 86.4763 30.3534L87.193 29.6171C87.3018 29.8207 87.3703 30.0443 87.3983 30.2879C87.4264 30.5315 87.3979 30.7794 87.3129 31.0316C87.2314 31.2802 87.0791 31.5192 86.8559 31.7485ZM84.5625 30.8036L85.8127 29.5191C85.63 29.3483 85.424 29.2769 85.1945 29.3047C84.9686 29.329 84.7719 29.4271 84.6045 29.5991C84.4615 29.746 84.3756 29.9275 84.3467 30.1436C84.3142 30.3562 84.3861 30.5762 84.5625 30.8036ZM88.443 29.9888L85.7772 27.3942L86.4415 26.7116L86.7533 27.015C86.7185 26.7998 86.7457 26.5855 86.8347 26.3721C86.9237 26.1517 87.0449 25.9627 87.1983 25.805C87.4982 25.4969 87.8444 25.3419 88.2369 25.3401C88.6257 25.3349 89.0083 25.5153 89.3845 25.8815L90.9539 27.409L90.2896 28.0915L88.8115 26.653C88.6109 26.4577 88.3991 26.3527 88.1761 26.3381C87.9531 26.3163 87.7456 26.404 87.5538 26.6011C87.362 26.7982 87.2765 27.0115 87.2973 27.241C87.318 27.4635 87.4287 27.6724 87.6293 27.8677L89.1073 29.3062L88.443 29.9888ZM92.6853 25.63L88.9231 21.9683L89.5927 21.2804L93.3549 24.9421L92.6853 25.63ZM94.9444 23.309C94.6654 23.5956 94.3846 23.7444 94.1018 23.7553C93.8226 23.7626 93.5432 23.6302 93.2638 23.3582L92.0115 22.1394L91.6767 22.4834L91.1016 21.9236L91.4364 21.5797L90.7861 20.9467L91.4557 20.2588L92.106 20.8917L92.6971 20.2844L93.2722 20.8441L92.6811 21.4514L93.9387 22.6755C94.039 22.7732 94.1333 22.8125 94.2214 22.7937C94.3096 22.7748 94.3955 22.7224 94.4792 22.6364L94.7878 22.3193L95.3629 22.879L94.9444 23.309ZM96.9961 21.33C96.7241 21.6095 96.4278 21.792 96.1072 21.8777C95.7901 21.9598 95.4718 21.9535 95.1523 21.8588C94.8327 21.7641 94.5404 21.5877 94.2753 21.3297C93.9922 21.0542 93.8026 20.758 93.7063 20.441C93.6101 20.1241 93.6041 19.8077 93.6882 19.4919C93.7687 19.1726 93.9398 18.8786 94.2013 18.6098C94.4594 18.3447 94.7417 18.1694 95.0481 18.0839C95.3581 17.9948 95.6674 17.9924 95.9762 18.0766C96.2884 18.1573 96.5753 18.3249 96.8369 18.5795C96.8835 18.6248 96.9283 18.6719 96.9714 18.7208C97.0109 18.7663 97.0469 18.8118 97.0793 18.8573L95.1543 20.8351C95.2902 20.9464 95.4326 21.0223 95.5817 21.0627C95.7307 21.0961 95.8773 21.0923 96.0218 21.0515C96.1661 21.0035 96.2975 20.9187 96.4161 20.7968C96.5382 20.6714 96.6159 20.5378 96.6493 20.3959C96.6863 20.2504 96.6753 20.0968 96.6166 19.9349L97.3332 19.1986C97.4421 19.4022 97.5105 19.6258 97.5386 19.8694C97.5666 20.113 97.5381 20.3609 97.4532 20.6131C97.3717 20.8617 97.2193 21.1007 96.9961 21.33ZM94.7027 20.3851L95.9529 19.1006C95.7703 18.9298 95.5642 18.8583 95.3348 18.8862C95.1088 18.9105 94.9121 19.0086 94.7447 19.1806C94.6018 19.3275 94.5158 19.509 94.4869 19.7251C94.4544 19.9377 94.5264 20.1577 94.7027 20.3851ZM98.5832 19.5703L95.9174 16.9757L96.5818 16.2931L96.8881 16.5913C96.8499 16.3796 96.8684 16.1743 96.9435 15.9753C97.0185 15.7762 97.1311 15.5997 97.281 15.4456C97.4763 15.245 97.7007 15.1005 97.954 15.0122C98.2073 14.9169 98.4706 14.908 98.744 14.9856C98.6663 14.7356 98.6594 14.4882 98.7233 14.2434C98.7871 13.9915 98.9114 13.7705 99.0962 13.5806C99.295 13.3764 99.5176 13.2337 99.764 13.1526C100.01 13.0644 100.267 13.0556 100.533 13.1263C100.799 13.1969 101.061 13.3578 101.319 13.6089L102.894 15.1416L102.229 15.8242L100.751 14.3856C100.551 14.1903 100.344 14.0835 100.132 14.0652C99.9193 14.0468 99.7154 14.138 99.5202 14.3387C99.3284 14.5357 99.2427 14.742 99.2633 14.9574C99.2839 15.1728 99.3946 15.3781 99.5952 15.5734L101.073 17.012L100.409 17.6945L98.9309 16.256C98.7266 16.0572 98.5166 15.954 98.3008 15.9463C98.0849 15.9315 97.8846 16.0191 97.6998 16.209C97.5428 16.3702 97.457 16.5623 97.4424 16.7853C97.4276 17.0012 97.5367 17.2225 97.7696 17.4492L99.2476 18.8877L98.5832 19.5703ZM104.45 13.6713C104.255 13.8719 104.036 14.0252 103.794 14.131C103.547 14.2333 103.3 14.2756 103.053 14.2577C102.808 14.2362 102.59 14.142 102.397 13.9749L103.066 13.2869C103.198 13.3806 103.342 13.4122 103.497 13.3819C103.656 13.3479 103.793 13.2718 103.908 13.1535C104.005 13.0532 104.074 12.9391 104.115 12.8113C104.156 12.6764 104.128 12.5618 104.031 12.4677C103.956 12.3944 103.865 12.3692 103.759 12.3918C103.654 12.4144 103.546 12.4566 103.438 12.5181C103.329 12.5797 103.231 12.6376 103.143 12.6919C102.926 12.8292 102.717 12.9434 102.516 13.0345C102.312 13.1221 102.117 13.1583 101.929 13.1432C101.738 13.1246 101.555 13.0298 101.379 12.8589C101.207 12.6915 101.107 12.5002 101.08 12.2849C101.055 12.066 101.091 11.8463 101.187 11.6257C101.283 11.3981 101.424 11.1894 101.608 10.9995C101.898 10.7021 102.217 10.5245 102.566 10.4668C102.916 10.409 103.246 10.5141 103.557 10.7822L102.924 11.4325C102.799 11.3317 102.666 11.2963 102.525 11.3265C102.384 11.3497 102.252 11.4239 102.13 11.5493C102.033 11.6497 101.963 11.7567 101.923 11.8704C101.882 11.9841 101.911 12.0897 102.012 12.1874C102.083 12.2571 102.174 12.2824 102.283 12.2633C102.389 12.2406 102.5 12.1985 102.616 12.1368C102.728 12.0716 102.826 12.0137 102.91 11.9631C103.138 11.8221 103.351 11.7114 103.548 11.6309C103.748 11.5469 103.94 11.5142 104.124 11.533C104.308 11.5517 104.49 11.6447 104.669 11.812C104.845 11.9829 104.945 12.1778 104.969 12.3966C104.996 12.612 104.964 12.8316 104.872 13.0556C104.776 13.2762 104.635 13.4814 104.45 13.6713Z" fill="white"/>
</svg>
