<svg width="169" height="232" viewBox="0 0 169 232" fill="none" xmlns="http://www.w3.org/2000/svg">
<path d="M0.970703 97.4622L38.9479 84.9908L133.314 101.461C148.425 104.101 159.732 116.805 160.586 132.13L167.632 258.456H0.980181V97.4719L0.970703 97.4622Z" fill="white" stroke="#1E1E1E" stroke-width="1.94109" stroke-linecap="round" stroke-linejoin="round"/>
<path d="M29.7575 88.0092L125.909 107.051C132.868 108.429 138.129 114.156 138.915 121.202L145.524 180.22H130.782L125.832 126.132C125.181 118.979 119.921 113.107 112.884 111.671L17.1504 92.1437L29.748 88.0092H29.7575Z" fill="#F6D307"/>
<path d="M116.028 98.1025L111.36 97.6269L108.798 15.5967L83.3403 8.79317L83.583 92.7839L78.8857 91.959L78.0801 2.29053L114.048 10.0452L116.028 98.1025Z" fill="#1E1E1E"/>
<path d="M117.115 31.8144L108.118 30.2421L107.71 15.5966L85.2418 9.58899V26.1173L76.9922 23.7104V1.45584L115.989 9.58899L117.115 31.8144Z" fill="#1E1E1E" stroke="#1E1E1E" stroke-width="2.91163" stroke-linecap="round" stroke-linejoin="round"/>
<path d="M0.970703 97.4618V243.14H117.174V145.64C117.174 129.267 105.372 115.281 89.2413 112.534L0.970703 97.4618Z" fill="white" stroke="#1E1E1E" stroke-width="1.94109" stroke-linecap="round" stroke-linejoin="round"/>
</svg>
