<svg width="150" height="58" viewBox="0 0 150 58" fill="none" xmlns="http://www.w3.org/2000/svg">
<path d="M139.98 6.72009H130.32V62.925H139.98V6.72009Z" fill="#1E1E1E"/>
<path d="M139.981 63.8176H130.32C130.088 63.8176 129.863 63.72 129.698 63.555C129.533 63.39 129.436 63.165 129.436 62.925V6.72006C129.436 6.48756 129.526 6.2625 129.698 6.0975C129.863 5.9325 130.088 5.83502 130.32 5.83502H139.981C140.213 5.83502 140.438 5.9325 140.603 6.0975C140.768 6.2625 140.866 6.48756 140.866 6.72006V62.925C140.866 63.1575 140.776 63.39 140.603 63.555C140.438 63.72 140.213 63.8176 139.981 63.8176ZM131.206 62.0475H139.096V7.61252H131.206V62.0475Z" fill="#1E1E1E"/>
<path d="M148.215 5.08502H138.555V30.3825H148.215V5.08502Z" fill="#1E1E1E"/>
<path d="M148.215 31.2751H138.555C138.322 31.2751 138.097 31.1776 137.932 31.0126C137.767 30.8476 137.67 30.6225 137.67 30.3825V5.08502C137.67 4.85252 137.76 4.62755 137.932 4.46255C138.097 4.29755 138.322 4.20007 138.555 4.20007H148.215C148.447 4.20007 148.673 4.29005 148.838 4.46255C149.003 4.62755 149.1 4.85252 149.1 5.08502V30.3825C149.1 30.615 149.01 30.8401 148.838 31.0126C148.673 31.1776 148.447 31.2751 148.215 31.2751ZM139.44 29.5051H147.33V5.98499H139.44V29.5051Z" fill="#1E1E1E"/>
<path d="M99.1873 24.7425H12.0898V62.9175H99.1873V24.7425Z" fill="#F6D307"/>
<path d="M99.1799 63.8176H12.09C11.8575 63.8176 11.6325 63.72 11.4675 63.555C11.3025 63.39 11.2051 63.165 11.2051 62.925V24.75C11.2051 24.5175 11.295 24.2925 11.4675 24.12C11.6325 23.955 11.8575 23.8575 12.09 23.8575H99.1799C99.4124 23.8575 99.6375 23.955 99.8025 24.12C99.9675 24.285 100.065 24.51 100.065 24.75V62.925C100.065 63.1575 99.975 63.3825 99.8025 63.555C99.6375 63.72 99.4124 63.8176 99.1799 63.8176ZM12.975 62.0475H98.3025V25.635H12.975V62.0475Z" fill="#1E1E1E"/>
<path d="M99.1871 0.892578H0.884766V24.7425H99.1871V0.892578Z" fill="#F6D307"/>
<path d="M99.18 25.6275H0.885132C0.652632 25.6275 0.427573 25.5376 0.262573 25.3651C0.0975732 25.2001 0 24.975 0 24.7425V0.892548C0 0.660048 0.0900732 0.435073 0.262573 0.262573C0.427573 0.0975732 0.652632 0 0.885132 0H99.18C99.4125 0 99.6376 0.0975732 99.8026 0.262573C99.9676 0.427573 100.065 0.652548 100.065 0.892548V24.7425C100.065 24.975 99.9751 25.2001 99.8026 25.3651C99.6376 25.5301 99.4125 25.6275 99.18 25.6275ZM1.80011 23.8575H98.3026V1.7775H1.77008L1.80011 23.8575Z" fill="#1E1E1E"/>
<path d="M99.1875 62.9175H136.748V24.7425H99.1875V62.9175Z" fill="#F6D307"/>
<path d="M136.74 63.8176H99.1799C98.9474 63.8176 98.7225 63.72 98.5575 63.555C98.3925 63.39 98.2949 63.165 98.2949 62.925V24.75C98.2949 24.5175 98.3925 24.2925 98.5575 24.1275C98.7225 23.9625 98.9474 23.8651 99.1799 23.8651H136.74C136.972 23.8651 137.197 23.9625 137.362 24.1275C137.527 24.2925 137.625 24.5175 137.625 24.7575V62.9325C137.625 63.165 137.535 63.39 137.362 63.5625C137.197 63.7275 136.972 63.8251 136.74 63.8251V63.8176ZM100.073 62.0475H135.862V25.635H100.073V62.0475Z" fill="#1E1E1E"/>
<path d="M99.1797 24.75H141.705V0.900024H99.1797V24.75Z" fill="#F6D307"/>
<path d="M141.697 25.6275H99.1722C98.9397 25.6275 98.7147 25.5376 98.5497 25.3651C98.3847 25.2001 98.2871 24.975 98.2871 24.7425V0.892548C98.2871 0.660048 98.3772 0.435073 98.5497 0.262573C98.7147 0.0975732 98.9397 0 99.1722 0H141.697C141.93 0 142.155 0.0975732 142.32 0.262573C142.485 0.427573 142.582 0.652548 142.582 0.892548V24.7425C142.582 24.975 142.492 25.2001 142.32 25.3651C142.155 25.5301 141.93 25.6275 141.697 25.6275ZM100.057 23.8575H140.782V1.7775H100.057V23.8575Z" fill="#1E1E1E"/>
<path d="M61.9203 0.892578H38.0703V24.7425H61.9203V0.892578Z" fill="#F6DDE1"/>
<path d="M61.9198 25.6275H38.0998C37.8673 25.6275 37.6424 25.5376 37.4774 25.3651C37.3124 25.2001 37.2148 24.975 37.2148 24.7425V0.892548C37.2148 0.660048 37.3049 0.435073 37.4774 0.262573C37.6424 0.0975732 37.8673 0 38.0998 0H61.9498C62.1823 0 62.4074 0.0975732 62.5724 0.262573C62.7374 0.427573 62.8348 0.652548 62.8348 0.892548V24.7425C62.8348 24.8625 62.8124 24.9751 62.7674 25.0876C62.7224 25.2001 62.6549 25.2976 62.5649 25.3801C62.4824 25.4626 62.3773 25.5301 62.2648 25.5676C62.1523 25.6126 62.0323 25.635 61.9198 25.6275ZM38.9549 23.8575H61.0349V1.7775H38.9549V23.8575Z" fill="#1E1E1E"/>
<path d="M70.6799 24.7425H46.8301V30.375H70.6799V24.7425Z" fill="#F6DDE1"/>
<path d="M70.6878 31.2751H46.8304C46.5979 31.2751 46.3729 31.1776 46.2079 31.0126C46.0429 30.8476 45.9453 30.6225 45.9453 30.3825V24.7425C45.9453 24.51 46.0354 24.285 46.2079 24.1125C46.3729 23.9475 46.5979 23.85 46.8304 23.85H70.6878C70.9203 23.85 71.1454 23.9475 71.3104 24.1125C71.4754 24.2775 71.5729 24.5025 71.5729 24.735V30.375C71.5729 30.6075 71.4829 30.8326 71.3104 31.0051C71.1454 31.1701 70.9203 31.2675 70.6878 31.2675V31.2751ZM47.7154 29.5051H69.8029V25.635H47.7154V29.5051Z" fill="#1E1E1E"/>
<path d="M128.4 28.9351H107.52V54.0825H128.4V28.9351Z" fill="white"/>
<path d="M128.4 54.9676H107.52C107.287 54.9676 107.062 54.8776 106.897 54.7051C106.732 54.5401 106.635 54.315 106.635 54.0825V28.9351C106.635 28.7026 106.732 28.4775 106.897 28.3125C107.062 28.1475 107.287 28.05 107.52 28.05H128.4C128.632 28.05 128.857 28.14 129.022 28.3125C129.187 28.4775 129.285 28.7026 129.285 28.9351V54.0825C129.285 54.315 129.195 54.5401 129.022 54.7051C128.857 54.8701 128.632 54.9676 128.4 54.9676ZM108.405 53.1976H127.515V29.82H108.405V53.1976Z" fill="#1E1E1E"/>
<path d="M12.0898 26.4675L99.1873 27.5625V24.7425H12.0898V26.4675Z" fill="#1E1E1E"/>
<path d="M99.1802 28.4475L12.0828 27.3451C11.8503 27.3451 11.6253 27.2475 11.4678 27.0825C11.3028 26.9175 11.2129 26.6925 11.2129 26.46V24.735C11.2129 24.5025 11.3028 24.2775 11.4753 24.105C11.6403 23.94 11.8653 23.8425 12.0978 23.8425H99.1802C99.4127 23.8425 99.6378 23.94 99.8028 24.105C99.9678 24.27 100.065 24.495 100.065 24.735V27.555C100.065 27.7875 99.9753 28.0201 99.8028 28.1851C99.7203 28.2676 99.6229 28.3276 99.5179 28.3726C99.4129 28.4176 99.2927 28.44 99.1802 28.44V28.4475ZM16.0654 25.6275L98.3028 26.67V25.6275H16.0654Z" fill="#1E1E1E"/>
<path d="M99.1875 26.1525L136.74 27.5625V24.7425H99.1875V26.1525Z" fill="#1E1E1E"/>
<path d="M136.74 28.4475H136.702L99.15 27.0375C98.9175 27.0375 98.7 26.9325 98.5425 26.7675C98.385 26.6025 98.2949 26.385 98.2949 26.1525V24.7425C98.2949 24.51 98.3925 24.285 98.5575 24.12C98.7225 23.955 98.9474 23.8575 99.1799 23.8575H136.74C136.972 23.8575 137.197 23.955 137.362 24.12C137.527 24.285 137.625 24.51 137.625 24.75V27.57C137.625 27.8025 137.535 28.0276 137.362 28.1926C137.197 28.3576 136.972 28.455 136.74 28.455V28.4475ZM108.825 25.6275L135.855 26.6475V25.6275H108.825Z" fill="#1E1E1E"/>
</svg>
